<svg class="walde-logo" viewBox="0 0 73 47" fill="none" xmlns="http://www.w3.org/2000/svg">
<path d="M21 0L27.4894 1.02781L33.3435 4.01064L37.9894 8.65651L40.9722 14.5106L42 21L40.9722 27.4894L37.9894 33.3435L33.3435 37.9894L27.4894 40.9722L21 42L14.5106 40.9722L8.65651 37.9894L4.01064 33.3435L1.02781 27.4894L0 21L1.02781 14.5106L4.01064 8.65651L8.65651 4.01064L14.5106 1.02781L21 0Z" fill="#F8963F" fill-opacity="0.2"/>
<path d="M6.49 18.55L5.72 18.41V18.2H7.4C7.89467 18.2 8.30067 18.312 8.618 18.536C8.93533 18.76 9.15933 19.0447 9.29 19.39L11.404 24.78L12.636 21.168L11.6 18.55L10.83 18.41V18.2H12.51C13.0047 18.2 13.406 18.312 13.714 18.536C14.022 18.7507 14.2507 19.0353 14.4 19.39L16.514 24.78L18.53 18.83L17.48 18.41V18.2H20.07V18.41L18.95 18.83L15.8 28.14H15.38L12.86 21.742L10.69 28.14H10.27L6.49 18.55ZM68.3891 44.21C67.2318 44.21 66.3218 43.8833 65.6591 43.23C65.0058 42.5673 64.6791 41.6573 64.6791 40.5C64.6791 39.3427 65.0058 38.4373 65.6591 37.784C66.3218 37.1213 67.2318 36.79 68.3891 36.79C69.5465 36.79 70.4518 37.1213 71.1051 37.784C71.7678 38.4373 72.0991 39.3427 72.0991 40.5C72.0991 41.6573 71.7678 42.5673 71.1051 43.23C70.4518 43.8833 69.5465 44.21 68.3891 44.21ZM68.3891 43.93C68.7625 43.93 69.0751 43.6687 69.3271 43.146C69.5885 42.6233 69.7191 41.7413 69.7191 40.5C69.7191 39.2587 69.5885 38.3767 69.3271 37.854C69.0751 37.3313 68.7625 37.07 68.3891 37.07C68.0158 37.07 67.6985 37.3313 67.4371 37.854C67.1851 38.3767 67.0591 39.2587 67.0591 40.5C67.0591 41.7413 67.1851 42.6233 67.4371 43.146C67.6985 43.6687 68.0158 43.93 68.3891 43.93Z" fill="#F8963F"/>
<path class="text" d="M23.0849 28.21C22.2543 28.21 21.6149 28.0327 21.1669 27.678C20.7189 27.3233 20.4949 26.8707 20.4949 26.32C20.4949 25.956 20.5743 25.5967 20.7329 25.242C20.7983 25.074 20.8823 24.92 20.9849 24.78C21.3676 24.6867 21.7829 24.6027 22.2309 24.528C23.2389 24.36 24.1303 24.2573 24.9049 24.22V23.8C24.9049 22.764 24.7789 22.05 24.5269 21.658C24.2749 21.266 23.8876 21.07 23.3649 21.07C23.1689 21.07 23.0009 21.0933 22.8609 21.14L22.6649 21.21V23.31L22.4829 23.352C22.3336 23.3707 22.2076 23.38 22.1049 23.38C21.7876 23.38 21.5309 23.2867 21.3349 23.1C21.1483 22.904 21.0549 22.6473 21.0549 22.33C21.0549 21.9007 21.2696 21.5367 21.6989 21.238C22.1376 20.9393 22.7863 20.79 23.6449 20.79C24.3729 20.79 24.9983 20.9207 25.5209 21.182C26.0529 21.434 26.4543 21.7887 26.7249 22.246C27.0049 22.694 27.1449 23.212 27.1449 23.8V27.58L27.9849 27.79V28H26.7249C26.1649 28 25.7309 27.8273 25.4229 27.482C25.2923 27.342 25.1896 27.1647 25.1149 26.95C24.9843 27.1833 24.8303 27.3933 24.6529 27.58C24.2329 28 23.7103 28.21 23.0849 28.21ZM23.6449 27.72C23.9903 27.72 24.3029 27.5333 24.5829 27.16C24.6856 27.02 24.7929 26.8333 24.9049 26.6V24.57C24.4756 24.57 24.0649 24.5933 23.6729 24.64C23.3836 24.6773 23.1876 24.7007 23.0849 24.71C23.0383 24.8127 22.9916 24.9527 22.9449 25.13C22.8516 25.4847 22.8049 25.8347 22.8049 26.18C22.8049 26.7027 22.8843 27.09 23.0429 27.342C23.2016 27.594 23.4023 27.72 23.6449 27.72ZM28.8315 27.79L29.6715 27.58V18.62L28.8315 18.41V18.2H30.6515C31.4915 18.2 31.9115 18.62 31.9115 19.46V27.58L32.7515 27.79V28H28.8315V27.79ZM36.4593 28.21C35.9086 28.21 35.4186 28.07 34.9893 27.79C34.56 27.5007 34.2193 27.0807 33.9673 26.53C33.7153 25.97 33.5893 25.2933 33.5893 24.5C33.5893 23.3053 33.8646 22.3907 34.4153 21.756C34.9753 21.112 35.7266 20.79 36.6693 20.79C37.1173 20.79 37.5093 20.8833 37.8453 21.07C37.9853 21.1353 38.13 21.2287 38.2793 21.35V18.62L37.4393 18.41V18.2H39.2593C40.0993 18.2 40.5193 18.62 40.5193 19.46V27.58L41.3593 27.79V28H40.0993C39.5393 28 39.1053 27.8273 38.7973 27.482C38.6666 27.342 38.564 27.1647 38.4893 26.95C38.368 27.1833 38.214 27.3933 38.0273 27.58C37.6073 28 37.0846 28.21 36.4593 28.21ZM37.0193 27.72C37.3646 27.72 37.6773 27.5333 37.9573 27.16C38.06 27.02 38.1673 26.8333 38.2793 26.6V21.77C38.1766 21.6673 38.0693 21.574 37.9573 21.49C37.7053 21.3033 37.4626 21.21 37.2293 21.21C36.828 21.21 36.5153 21.4433 36.2913 21.91C36.0766 22.3767 35.9693 23.24 35.9693 24.5C35.9693 25.704 36.0673 26.544 36.2633 27.02C36.4686 27.4867 36.7206 27.72 37.0193 27.72ZM46.0509 28.21C44.8563 28.21 43.9276 27.8833 43.2649 27.23C42.6023 26.5673 42.2709 25.6573 42.2709 24.5C42.2709 23.744 42.4156 23.086 42.7049 22.526C42.9943 21.966 43.3956 21.5367 43.9089 21.238C44.4316 20.9393 45.0289 20.79 45.7009 20.79C46.3729 20.79 46.9609 20.916 47.4649 21.168C47.9783 21.42 48.3703 21.7607 48.6409 22.19C48.9209 22.61 49.0609 23.0767 49.0609 23.59C49.0609 23.8233 49.0376 24.024 48.9909 24.192L48.9209 24.43C48.5196 24.514 48.0856 24.584 47.6189 24.64C46.6389 24.78 45.6496 24.85 44.6509 24.85C44.6509 25.9327 44.8003 26.7073 45.0989 27.174C45.3976 27.6313 45.8083 27.86 46.3309 27.86C46.6949 27.86 47.0309 27.776 47.3389 27.608C47.6563 27.4307 47.9036 27.202 48.0809 26.922C48.2676 26.6327 48.3609 26.3387 48.3609 26.04H48.7109C48.7109 26.4133 48.5989 26.768 48.3749 27.104C48.1509 27.44 47.8383 27.7107 47.4369 27.916C47.0356 28.112 46.5736 28.21 46.0509 28.21ZM44.6509 24.5C45.2483 24.5 45.7336 24.4767 46.1069 24.43C46.2656 24.4207 46.4336 24.3973 46.6109 24.36C46.6203 24.3133 46.6436 24.2107 46.6809 24.052C46.7276 23.8187 46.7509 23.5713 46.7509 23.31C46.7509 22.5353 46.6483 21.9707 46.4429 21.616C46.2376 21.252 45.9903 21.07 45.7009 21.07C45.0009 21.07 44.6509 22.2133 44.6509 24.5ZM45.4769 20.3L43.5869 18.2H45.4069L45.9669 20.3H45.4769ZM7.96 35.95V43.37L9.08 43.79V44H6.42V43.79L7.54 43.37V34.62L6.7 34.41V34.2H8.45C8.93533 34.2 9.318 34.3027 9.598 34.508C9.88733 34.704 10.1347 34.998 10.34 35.39L13.392 41.228L15.73 35.39C15.8887 34.9793 16.1033 34.6807 16.374 34.494C16.6447 34.298 17.06 34.2 17.62 34.2H19.09V34.41L18.25 34.62V43.58L19.09 43.79V44H15.1V43.79L15.94 43.58V35.95L12.65 44.14H12.23L7.96 35.95ZM23.0849 44.21C22.2543 44.21 21.6149 44.0327 21.1669 43.678C20.7189 43.3233 20.4949 42.8707 20.4949 42.32C20.4949 41.956 20.5743 41.5967 20.7329 41.242C20.7983 41.074 20.8823 40.92 20.9849 40.78C21.3676 40.6867 21.7829 40.6027 22.2309 40.528C23.2389 40.36 24.1303 40.2573 24.9049 40.22V39.8C24.9049 38.764 24.7789 38.05 24.5269 37.658C24.2749 37.266 23.8876 37.07 23.3649 37.07C23.1689 37.07 23.0009 37.0933 22.8609 37.14L22.6649 37.21V39.31L22.4829 39.352C22.3336 39.3707 22.2076 39.38 22.1049 39.38C21.7876 39.38 21.5309 39.2867 21.3349 39.1C21.1483 38.904 21.0549 38.6473 21.0549 38.33C21.0549 37.9007 21.2696 37.5367 21.6989 37.238C22.1376 36.9393 22.7863 36.79 23.6449 36.79C24.3729 36.79 24.9983 36.9207 25.5209 37.182C26.0529 37.434 26.4543 37.7887 26.7249 38.246C27.0049 38.694 27.1449 39.212 27.1449 39.8V43.58L27.9849 43.79V44H26.7249C26.1649 44 25.7309 43.8273 25.4229 43.482C25.2923 43.342 25.1896 43.1647 25.1149 42.95C24.9843 43.1833 24.8303 43.3933 24.6529 43.58C24.2329 44 23.7103 44.21 23.0849 44.21ZM23.6449 43.72C23.9903 43.72 24.3029 43.5333 24.5829 43.16C24.6856 43.02 24.7929 42.8333 24.9049 42.6V40.57C24.4756 40.57 24.0649 40.5933 23.6729 40.64C23.3836 40.6773 23.1876 40.7007 23.0849 40.71C23.0383 40.8127 22.9916 40.9527 22.9449 41.13C22.8516 41.4847 22.8049 41.8347 22.8049 42.18C22.8049 42.7027 22.8843 43.09 23.0429 43.342C23.2016 43.594 23.4023 43.72 23.6449 43.72ZM28.8315 43.79L29.6715 43.58V37.42L28.8315 37.21V37H30.0915C30.6422 37 31.0762 37.1773 31.3935 37.532C31.5148 37.672 31.6175 37.8447 31.7015 38.05C31.8415 37.8447 32.0142 37.658 32.2195 37.49C32.6862 37.1167 33.2088 36.93 33.7875 36.93C34.2822 36.93 34.6508 37.0467 34.8935 37.28C35.1455 37.504 35.2715 37.8307 35.2715 38.26C35.2715 38.5773 35.1735 38.834 34.9775 39.03C34.7908 39.2167 34.5388 39.31 34.2215 39.31C34.0908 39.31 33.9602 39.3007 33.8295 39.282L33.6615 39.24V37.28C33.1855 37.28 32.7515 37.4667 32.3595 37.84C32.1728 38.0267 32.0235 38.2133 31.9115 38.4V43.58L32.7515 43.79V44H28.8315V43.79ZM39.6098 44.21C38.4525 44.21 37.5425 43.8833 36.8798 43.23C36.2265 42.5673 35.8998 41.6573 35.8998 40.5C35.8998 39.3427 36.2265 38.4373 36.8798 37.784C37.5425 37.1213 38.4525 36.79 39.6098 36.79C40.7672 36.79 41.6725 37.1213 42.3258 37.784C42.9885 38.4373 43.3198 39.3427 43.3198 40.5C43.3198 41.6573 42.9885 42.5673 42.3258 43.23C41.6725 43.8833 40.7672 44.21 39.6098 44.21ZM39.6098 43.93C39.9832 43.93 40.2958 43.6687 40.5478 43.146C40.8092 42.6233 40.9398 41.7413 40.9398 40.5C40.9398 39.2587 40.8092 38.3767 40.5478 37.854C40.2958 37.3313 39.9832 37.07 39.6098 37.07C39.2365 37.07 38.9192 37.3313 38.6578 37.854C38.4058 38.3767 38.2798 39.2587 38.2798 40.5C38.2798 41.7413 38.4058 42.6233 38.6578 43.146C38.9192 43.6687 39.2365 43.93 39.6098 43.93ZM48.1548 44.21C46.9974 44.21 46.0874 43.8833 45.4248 43.23C44.7714 42.5673 44.4448 41.6573 44.4448 40.5C44.4448 39.3427 44.7714 38.4373 45.4248 37.784C46.0874 37.1213 46.9974 36.79 48.1548 36.79C49.3121 36.79 50.2174 37.1213 50.8708 37.784C51.5334 38.4373 51.8648 39.3427 51.8648 40.5C51.8648 41.6573 51.5334 42.5673 50.8708 43.23C50.2174 43.8833 49.3121 44.21 48.1548 44.21ZM48.1548 43.93C48.5281 43.93 48.8408 43.6687 49.0928 43.146C49.3541 42.6233 49.4848 41.7413 49.4848 40.5C49.4848 39.2587 49.3541 38.3767 49.0928 37.854C48.8408 37.3313 48.5281 37.07 48.1548 37.07C47.7814 37.07 47.4641 37.3313 47.2028 37.854C46.9508 38.3767 46.8248 39.2587 46.8248 40.5C46.8248 41.7413 46.9508 42.6233 47.2028 43.146C47.4641 43.6687 47.7814 43.93 48.1548 43.93ZM52.8497 37.42L52.1497 37.21V37H53.7597C54.2544 37 54.6464 37.1027 54.9357 37.308C55.225 37.5133 55.463 37.8073 55.6497 38.19L57.1897 41.41L57.9877 39.366L57.0497 37.42L56.3497 37.21V37H57.9597C58.4544 37 58.8464 37.1027 59.1357 37.308C59.425 37.5133 59.663 37.8073 59.8497 38.19L61.3897 41.41L62.8597 37.63L61.8097 37.21V37H64.3997V37.21L63.2797 37.63L60.6897 44.14H60.2697L58.1977 39.828L56.4897 44.14H56.0697L52.8497 37.42Z" fill="#292929"/>
<path class="chicken"  d="M60.4858 23.7126L60.4885 23.7112C60.4885 23.7114 60.4881 23.7117 60.4881 23.7117L60.4858 23.7126ZM60.6791 23.5099C60.6907 23.5093 60.6955 23.5192 60.7009 23.5312L60.6505 23.5201L60.6791 23.5099ZM61.0255 23.3224C61.0255 23.3224 61.0249 23.3228 61.0247 23.3232L61.0227 23.3231L61.0255 23.3224ZM61.6396 23.0489C61.6393 23.049 61.6392 23.0493 61.6392 23.0493C61.5892 23.0409 61.5425 23.0666 61.4956 23.0873L61.4953 23.0867L61.4536 23.0767L61.6396 23.0489ZM61.7042 22.918L61.7345 22.9128C61.7459 22.9274 61.7527 22.9474 61.7715 22.9431L61.7617 22.9447L61.7042 22.918ZM62.0856 22.0407L62.1231 21.994C62.1231 22.0124 62.1245 22.0312 62.1166 22.0479L62.1143 22.0454L62.0856 22.0407ZM62.2547 21.5942V21.5908L62.3544 21.4982C62.3111 21.5429 62.2654 21.5851 62.2328 21.6371L62.2547 21.5942ZM65.0754 21.7521L65.0733 21.755L65.0712 21.7583L65.0741 21.7689L65.0852 21.7662L65.0887 21.7706L65.0684 21.7755C64.9992 21.7559 64.9301 21.7363 64.861 21.7166L65.0754 21.7521ZM65.0995 21.8019L65.1015 21.8005L65.0966 21.8067L65.0867 21.8104L65.0754 21.8148L65.0413 21.823L65.0974 21.8031L65.0995 21.8019ZM64.5425 22.2996L64.541 22.3013L64.5233 22.3385C64.5312 22.3176 64.5324 22.2947 64.5416 22.2743C64.5491 22.2586 64.5634 22.2529 64.5729 22.24L64.5442 22.2991L64.5425 22.2996ZM63.2859 25.8921C63.2887 25.8906 63.2921 25.89 63.2948 25.8883L63.2831 25.8965L63.2859 25.8921ZM63.1518 25.9865L63.1438 25.977L63.1307 25.9771L63.007 26.042L63.0131 26.0142L63.0156 26.0105C63.0996 25.979 63.1824 25.945 63.2609 25.9032L63.2496 25.9194L63.1518 25.9865ZM62.9963 26.0478L62.9872 26.0525L62.9991 26.0346L62.9963 26.0478ZM62.966 26.0634L62.8546 26.1222L62.8383 26.1271L62.8328 26.1185L62.8211 26.1171L62.7088 26.1468C62.8067 26.1104 62.8947 26.0563 62.9933 26.0204L62.9672 26.0591L62.966 26.0613V26.0634ZM61.9283 26.7316C61.9421 26.7101 61.9558 26.6894 61.9714 26.6688L61.9748 26.6725L61.9283 26.7316ZM61.9283 26.8029L61.8392 26.9071L61.8383 26.9098L61.8392 26.9123L61.8242 26.9227C61.832 26.8984 61.8367 26.8733 61.847 26.8498C61.8487 26.8458 61.8528 26.8426 61.8547 26.8385L61.8589 26.8384L61.8676 26.828L61.9283 26.8029ZM63.1843 27.7989L63.1712 27.8054C63.1536 27.7973 63.1333 27.7998 63.1146 27.7948C63.0945 27.7893 63.0766 27.7795 63.0556 27.7781L63.0838 27.7758L63.1843 27.7989ZM63.198 27.8094L63.2027 27.8069L63.2215 27.8161L63.2094 27.8217C63.2075 27.8206 63.205 27.8211 63.2031 27.8199C63.2007 27.8182 63.1993 27.8148 63.197 27.8132L63.198 27.8121V27.8094ZM63.2747 27.8507L63.245 27.8631C63.2341 27.8532 63.2299 27.8382 63.2182 27.8298L63.2329 27.8223L63.2747 27.8507ZM63.319 27.8909L63.3493 27.9278L63.3386 27.9484L63.3402 27.953H63.3296C63.3134 27.9192 63.2807 27.8983 63.2531 27.8725L63.2853 27.8588L63.319 27.8909ZM61.0049 27.9562L61.011 27.949H61.0139L61.0049 27.9562ZM60.87 27.9419L60.8778 27.919L60.8913 27.9116L60.9018 27.905L60.9032 27.9054L60.8829 27.9411L60.87 27.9419ZM60.8961 26.7371L60.9406 26.7718L60.97 26.8202L60.9792 26.8467L60.8961 26.7371ZM60.8252 26.7029L60.8141 26.6863C60.8141 26.6851 60.8145 26.6842 60.8145 26.6832C60.8168 26.6838 60.8183 26.6869 60.8207 26.6875L60.8252 26.7029ZM60.4571 25.8035L60.4548 25.7993L60.4569 25.7961L60.456 25.7923L60.4464 25.7811L60.4467 25.7801C60.4509 25.7847 60.4552 25.7895 60.4597 25.7943L60.4571 25.8035ZM59.9295 24.7024L60.0241 24.8345L60.0248 24.8363C59.9983 24.7953 59.9667 24.7575 59.9308 24.7236L59.9295 24.7024ZM59.9046 24.5093L59.9331 24.5252C59.9437 24.5789 59.9626 24.6302 59.9796 24.6825L59.9046 24.5093ZM61.3136 27.4104L61.3125 27.4997L61.2977 27.5905L61.2991 27.5952L61.3027 27.5977L61.3019 27.6021L61.301 27.6024L61.2999 27.6032L61.2957 27.6113C61.2951 27.6069 61.293 27.6032 61.2927 27.5989C61.2977 27.5359 61.304 27.473 61.3136 27.4104ZM61.3447 27.3346L61.3317 27.3991L61.3313 27.3162C61.3364 27.3217 61.3393 27.329 61.3447 27.3346ZM61.508 27.7607C61.4842 27.7798 61.4539 27.7845 61.4232 27.7812L61.4239 27.7802L61.4144 27.7754L61.4075 27.7768L61.4034 27.7774C61.3826 27.7719 61.3659 27.7591 61.3492 27.7461L61.333 27.7361L61.3322 27.7362C61.3294 27.7333 61.3242 27.7333 61.3215 27.7301C61.3061 27.7111 61.314 27.6837 61.3065 27.6609L61.3133 27.6176L61.3174 27.699L61.3215 27.703L61.3257 27.699L61.3318 27.5456L61.3393 27.4984L61.3371 27.4498L61.3526 27.3521L61.3833 27.4433L61.3946 27.4497L61.4024 27.4406L61.3985 27.4096C61.4144 27.4306 61.43 27.4517 61.4445 27.4738L61.4823 27.5593L61.491 27.5648L61.5016 27.5604L61.5048 27.5651C61.5244 27.6051 61.5412 27.648 61.5355 27.6911L61.5349 27.6987C61.5332 27.7043 61.5313 27.7095 61.5287 27.7149C61.5233 27.736 61.516 27.7493 61.508 27.7607ZM60.8995 27.9365L60.9089 27.9198C60.9089 27.9246 60.9083 27.9296 60.9072 27.9345L60.9055 27.9365H60.8995ZM60.2894 23.9666L60.139 24.0763L60.136 24.0874L60.1457 24.0917L60.1582 24.0869C60.1525 24.0927 60.1458 24.0979 60.14 24.1038L60.0677 24.1508L60.065 24.1609L60.0737 24.1647C60.0717 24.1666 60.0695 24.1687 60.0672 24.1707L59.982 24.2175L59.9803 24.225L59.9879 24.2272L60.0298 24.205C60.0039 24.2285 59.9794 24.2538 59.9523 24.276C59.9737 24.3458 59.9951 24.4157 60.0163 24.4856C60.0059 24.4776 59.9914 24.4801 59.9792 24.4752L59.9315 24.3194L59.9198 24.3134L59.9133 24.3242L59.9424 24.4272V24.4651C59.9318 24.4639 59.9235 24.4557 59.9132 24.4568C59.9148 24.4707 59.9227 24.4835 59.9253 24.4973L59.8889 24.4776L59.8768 24.4793L59.875 24.4914L59.9623 24.6895L59.9626 24.6921L59.9634 24.6941L59.9646 24.6953L59.9989 24.772L59.9274 24.6765L59.9195 24.6736L59.9148 24.6798L59.9285 24.8859L59.9337 24.8902L59.938 24.8859L59.9337 24.7909C59.9288 24.8478 59.9316 24.9042 59.9444 24.9604L59.8959 24.9063H59.8889L59.8887 24.9138L59.9455 24.9792C59.9595 25.0332 59.9792 25.0838 60.0032 25.1359L59.9449 25.0706L59.9373 25.0705L59.9367 25.0782L60.023 25.1772C60.044 25.2185 60.0588 25.2627 60.0825 25.3016C60.0833 25.3031 60.0838 25.3045 60.0844 25.306L60.0381 25.2617L60.03 25.2619L60.0298 25.2696L60.0979 25.3359C60.1035 25.3475 60.1116 25.3584 60.1139 25.3712C60.1166 25.387 60.1153 25.4038 60.1212 25.4188C60.1259 25.4304 60.1337 25.4403 60.1419 25.4497C60.1561 25.4663 60.172 25.4818 60.1864 25.498L60.1159 25.4313L60.1058 25.4311L60.1041 25.4401L60.2268 25.5952L60.2355 25.5958L60.2372 25.5873L60.1758 25.5088L60.2683 25.5942L60.2696 25.5948L60.2708 25.5952L60.2712 25.5964L60.272 25.5977L60.3004 25.6302L60.3243 25.6632L60.3273 25.6652L60.3305 25.6648L60.3638 25.7023L60.3604 25.7077L60.3664 25.711L60.3706 25.7099L60.4241 25.7709L60.4312 25.7837L60.4306 25.7885L60.4324 25.7944L60.438 25.7962L60.4522 25.8215L60.4487 25.8351L60.4203 25.8352L60.415 25.8403L60.4203 25.8454H60.4457L60.4306 25.9018L60.4355 25.9098L60.4438 25.9053L60.4545 25.8725L60.4548 25.87L60.4541 25.8681L60.4604 25.8456H60.4615L60.4634 25.8452L60.4649 25.8443L60.4846 25.8793L60.4926 25.8814L60.4947 25.8735L60.4669 25.8214L60.4708 25.8061C60.4786 25.8147 60.4865 25.8228 60.4942 25.8314L60.4943 25.8327L60.4759 25.813H60.4696V25.819L60.498 25.8502C60.5146 25.904 60.5335 25.9591 60.5335 26.0065C60.5337 26.0074 60.5341 26.0084 60.5345 26.0094L60.4742 26.039L60.4727 26.0447L60.479 26.0467L60.5381 26.0187C60.5462 26.0465 60.5598 26.0721 60.5686 26.0999C60.5742 26.1346 60.5772 26.1696 60.5849 26.2038L60.57 26.211L60.5684 26.2166L60.5742 26.2183L60.5863 26.2126C60.6033 26.2873 60.6238 26.3582 60.6516 26.4298L60.6545 26.4505L60.6528 26.4515L60.6508 26.4568L60.6558 26.4595L60.6591 26.4841L60.666 26.4883L60.6717 26.4824L60.6705 26.4724L60.6791 26.486C60.6833 26.496 60.6882 26.5053 60.6929 26.5152L60.6777 26.5157L60.6744 26.5336L60.771 26.6765C60.7854 26.7005 60.7917 26.7287 60.8075 26.752C60.8082 26.7458 60.8088 26.7396 60.8094 26.7333L60.8548 26.8005L60.8741 26.806L60.8829 26.7889L60.8606 26.7137C60.8718 26.7183 60.8787 26.7264 60.8889 26.7322L60.8855 26.7341V26.7385L60.9908 26.8798L60.9993 26.904C60.9993 26.9055 60.9993 26.9071 60.9993 26.9085L60.9631 26.8792L60.9544 26.8797L60.9546 26.8875L60.9996 26.9239C61.0003 26.9928 61.0011 27.0619 61.0016 27.1308L60.9952 27.1494L60.9986 27.1552L61.002 27.1535C61.003 27.239 61.0038 27.3245 61.0049 27.4101L60.9974 27.4309L61.0004 27.4368L61.005 27.4346C61.0053 27.4791 61.006 27.5234 61.0067 27.5679C61.0067 27.5709 61.0053 27.5742 61.0053 27.5775L60.9942 27.6038L60.9976 27.6099L61.0016 27.6088C61.0011 27.629 60.9967 27.6484 60.9946 27.6689L60.9814 27.6962L60.9819 27.7015L60.986 27.7044L60.9781 27.7403L60.9811 27.7473L60.9853 27.7478C60.9735 27.7907 60.942 27.8165 60.9127 27.8454L60.9038 27.8515L60.8873 27.8754C60.8787 27.8804 60.8783 27.893 60.8689 27.8969C60.8699 27.8974 60.871 27.8973 60.8715 27.8976L60.8621 27.9116L60.8285 27.9205L60.793 27.9229L60.7869 27.9288L60.793 27.9351L60.8248 27.9344L60.8555 27.9278L60.8492 27.9494L60.851 27.9571L60.8579 27.9607L60.8723 27.9593L60.8562 27.9875L60.8579 27.9957L60.8662 27.9951L60.9013 27.9567L60.9057 27.9563L60.9113 27.9525V27.9484H60.92L60.9143 27.9603L60.9162 27.9683L60.9243 27.9678L60.9483 27.9486L60.997 27.9488L60.9597 27.9922V27.9999L60.9677 28L61.0297 27.949L61.0661 27.9491L61.0579 27.967L61.0604 27.974L61.0667 27.9721L61.078 27.9492H61.08C61.0869 27.95 61.093 27.9533 61.1 27.9541L61.092 27.9765L61.0951 27.983L61.1027 27.9808L61.1154 27.9579C61.1298 27.9595 61.1448 27.959 61.1596 27.9599L61.1467 27.9899L61.1505 27.997L61.158 27.9946L61.1733 27.9604C61.1813 27.9609 61.1895 27.9608 61.1975 27.9612L61.1912 27.9715L61.1933 27.9788L61.2016 27.9771L61.213 27.9617C61.2682 27.964 61.3238 27.9672 61.3789 27.9671H61.3802L61.3808 27.9676L61.3833 27.9671C61.3918 27.967 61.4007 27.967 61.4092 27.9668L61.4367 27.9875L61.4435 27.9863L61.443 27.9795L61.4259 27.9668C61.4278 27.9668 61.4297 27.9668 61.4316 27.9668L61.4363 27.9713L61.8144 27.9722L61.8182 27.9732L61.8216 27.9724L62.8659 27.9749L62.8655 27.9755L62.8749 27.9782L62.8811 27.9749L63.3698 27.9759L63.3816 27.9645L63.3698 27.953H63.3506L63.3585 27.9388L63.3668 27.9369L63.368 27.9286L63.3402 27.8865L63.3053 27.8502L63.3417 27.8349L63.3434 27.8287L63.3376 27.8256L63.2958 27.8423L63.2514 27.8116L63.2503 27.8061L63.2442 27.805L63.2416 27.8062L63.2177 27.7946L63.2148 27.792L63.2109 27.7919L63.1075 27.765L63.0012 27.7678L63.0025 27.7607L62.996 27.7591L62.974 27.774L62.9676 27.7761C62.9262 27.7844 62.886 27.7974 62.8446 27.8033C62.8446 27.8033 62.8434 27.8033 62.8427 27.8033L62.8942 27.7835L62.8966 27.7752L62.8876 27.7723L62.7995 27.8015L62.7911 27.8029C62.7563 27.8032 62.7215 27.8048 62.6873 27.8016C62.6683 27.7999 62.6494 27.7982 62.6305 27.7966L62.5424 27.7768L62.3816 27.7744C62.3757 27.7737 62.3702 27.7733 62.3643 27.7728L62.3134 27.7598L62.3088 27.7624L62.3111 27.7672L62.3162 27.7685C62.3105 27.7679 62.3052 27.7675 62.2997 27.767C62.2957 27.7666 62.2918 27.7647 62.2876 27.7644L62.2857 27.761L62.2517 27.7564C62.2004 27.7504 62.1482 27.7466 62.103 27.723C62.091 27.7164 62.0845 27.7032 62.0733 27.6952V27.6949L62.3825 27.7606L62.7424 27.7554L62.7464 27.7495L62.7412 27.7447L62.3681 27.7348L62.0472 27.6602C62.0207 27.6236 61.9867 27.5931 61.9672 27.5525C61.9548 27.5269 61.9423 27.5014 61.93 27.4758L61.8758 27.2695L61.8918 26.9961L61.883 26.9818L61.8686 26.9898L61.8527 27.0849L61.8475 27.1807L61.8407 27.0436L61.8364 27.0395L61.832 27.0436L61.827 26.9907L61.8224 26.9867L61.8182 26.9907L61.8338 27.2445L61.8371 27.249H61.8422L61.8578 27.3263C61.8576 27.3261 61.8572 27.3258 61.8572 27.3258C61.8338 27.2769 61.8102 27.2278 61.7982 27.1756C61.7831 27.1082 61.7922 27.0399 61.8085 26.9727L61.8314 26.9634L61.8141 26.9755L61.8127 26.9817L61.8187 26.9831L61.8729 26.9468L61.8744 26.9402L61.8676 26.9382L61.8242 26.9568L61.9006 26.8996L61.9009 26.894L61.8944 26.8936L61.8144 26.9546C61.8156 26.949 61.8178 26.9436 61.8194 26.9381L61.9141 26.8743L61.9153 26.8671L61.9086 26.8655L61.8572 26.9002L61.9511 26.7931L61.9517 26.7863L61.9445 26.7847L61.885 26.8095L61.9427 26.7531V26.7463L61.9354 26.7458L62.1581 26.481L62.2508 26.4157L62.2536 26.4151L62.2567 26.4134L62.3813 26.3247L62.3897 26.328L62.3998 26.3244L62.4677 26.2686L62.4716 26.2694L62.4765 26.2688L62.7081 26.1973L62.7122 26.21L62.7257 26.2125L63.044 26.1053L63.0527 26.098L63.0535 26.0882L63.2296 25.9661L63.2322 25.9706L63.2372 25.9715L63.0935 26.0789L63.0929 26.085L63.099 26.0862L63.2799 25.9521L63.2807 25.9465L63.275 25.944L63.3341 25.9L63.2871 25.9458L63.2876 25.9512H63.2928L63.3843 25.8629L63.4324 25.8276L63.4855 25.7956L63.4873 25.7918L63.4851 25.7886L63.4855 25.7881L63.5537 25.7372L63.5556 25.7274L63.5468 25.7255L63.487 25.7701L63.4856 25.7685L63.4837 25.7669L63.5005 25.7511V25.7449H63.4984C63.551 25.7003 63.6071 25.6598 63.6573 25.6129C63.7085 25.5652 63.752 25.5109 63.8003 25.4607L63.7889 25.4985L63.6375 25.6471L63.6378 25.6561L63.6467 25.6563L63.78 25.5284L63.7457 25.6409L63.7502 25.6479L63.7576 25.6439L63.7976 25.5116L63.9305 25.3825L63.9301 25.3721L63.9193 25.372L63.8065 25.4816L63.8183 25.4416C63.856 25.4016 63.8994 25.3661 63.9313 25.3216C64.0196 25.1987 64.0727 25.059 64.1131 24.9146L64.0766 25.0148L64.0804 25.0213L64.0877 25.0177L64.1677 24.7895L64.1646 24.7847L64.1592 24.7872L64.1281 24.8733C64.1569 24.7613 64.1725 24.646 64.1892 24.531L64.1914 24.5347L64.1968 24.5316L64.2191 24.4405L64.2207 24.4395L64.2215 24.4374L64.2496 24.2905L64.2453 24.2842L64.2392 24.2877L64.2299 24.3379L64.2279 24.339L64.2271 24.3415L64.198 24.4799C64.2014 24.4565 64.2077 24.4331 64.2107 24.4098C64.2215 24.3302 64.226 24.2502 64.2287 24.1701L64.2404 24.2501L64.245 24.253L64.249 24.2489L64.2323 24.1217C64.2321 24.1119 64.2352 24.102 64.2346 24.0923C64.2299 23.9836 64.2063 23.8766 64.1912 23.7689L64.229 23.8923L64.2352 23.8952L64.2382 23.8898L64.1957 23.7564L64.1906 23.7536L64.1895 23.7559C64.1874 23.7404 64.1846 23.725 64.1832 23.7093C64.1791 23.6689 64.1895 23.6289 64.1895 23.5883V23.5884L64.1934 23.5843L64.1896 23.5807C64.1899 23.4769 64.1992 23.375 64.2253 23.2743L64.2153 23.3164L64.2188 23.3216L64.224 23.3187L64.2495 23.2076C64.2511 23.201 64.2541 23.1947 64.2562 23.1881L64.2635 23.2253L64.2688 23.2285L64.2727 23.2228L64.2629 23.1699C64.2718 23.1444 64.2799 23.1188 64.2904 23.094L64.2907 23.0942L64.2955 23.0897V23.0793C64.3087 23.0501 64.3128 23.0176 64.3281 22.9893C64.3344 22.9776 64.3397 22.9653 64.3459 22.9535L64.3497 22.9708L64.3534 22.9745L64.3586 22.9727L64.3614 22.9845L64.3664 22.9875L64.37 22.9822L64.3569 22.9321C64.366 22.9162 64.3736 22.8999 64.3818 22.8836L64.4012 22.9205L64.4076 22.9222L64.4098 22.9157L64.3874 22.8725C64.3935 22.8591 64.4024 22.8465 64.4075 22.8325C64.4143 22.813 64.4137 22.7917 64.4179 22.7717L64.413 22.8162L64.4189 22.8219L64.4258 22.8162L64.4303 22.7766L64.436 22.7769L64.4387 22.7721L64.439 22.7316L64.4598 22.8236L64.4665 22.8275L64.4712 22.8207L64.443 22.7006L64.4416 22.6982L64.4392 22.6972V22.6935L64.4479 22.6134L64.4743 22.77L64.4803 22.7737L64.4841 22.7674L64.4561 22.607L64.453 22.604L64.4486 22.6055L64.4498 22.5948C64.4588 22.5315 64.4835 22.4718 64.5028 22.4105L64.5051 22.4083L64.5929 22.2222L64.58 22.2808L64.5852 22.342L64.5922 22.3459L64.5971 22.3389L64.5927 22.2747L64.6085 22.2137L64.6158 22.2165L64.6238 22.2153L64.9518 22.06L64.9954 22.0537L65.0258 22.0299L65.0419 22.0241L65.0512 22.0102L65.0413 21.998L65.0419 21.9937L65.048 21.9739L65.0413 21.9535L65.0405 21.9461L65.0382 21.9385L65.035 21.9305L65.0305 21.9232L65.0325 21.9132L65.0248 21.906L65.0105 21.9032L64.9911 21.8959L64.9695 21.8963L64.8953 21.8889L64.9336 21.8778L64.9374 21.871L64.9305 21.8671L64.8483 21.8878L64.8392 21.8884L64.9736 21.8459L65.0874 21.8273L65.116 21.8129L65.125 21.7622L65.084 21.746L65.0833 21.7458L65.0829 21.7452L64.7499 21.6854C64.7374 21.6817 64.7246 21.6779 64.7116 21.6743C64.6738 21.6635 64.635 21.6524 64.6033 21.63C64.5817 21.615 64.5677 21.5929 64.5517 21.5724L64.5139 21.4816L64.5086 21.4799L64.5059 21.4848L64.5305 21.5486C64.5278 21.5448 64.5241 21.542 64.5214 21.5382C64.3328 21.2755 64.0622 21.0363 63.7327 21.0107C63.6652 21.0054 63.5978 21.0166 63.5299 21.0239L63.5291 21.0209L63.699 21.0074L63.703 21.0033L63.699 21L63.4507 21.02L63.4472 21.0241L63.4507 21.0274L63.5044 21.023L63.4875 21.0266C63.4632 21.0297 63.4393 21.0282 63.415 21.0313C63.3637 21.0384 63.3174 21.041 63.2706 21.0447L63.2664 21.0432L63.2583 21.0458C63.2107 21.0497 63.1614 21.0622 63.1138 21.0741L63.1536 21.0455L63.1552 21.0384L63.1487 21.037L63.0886 21.0797C63.0787 21.0826 63.0694 21.0827 63.059 21.0863L63.0612 21.0822L63.0556 21.0796L62.9523 21.1198L62.9496 21.1256L62.9542 21.1279C62.9315 21.1372 62.9094 21.1473 62.8867 21.1569L62.7874 21.1919L62.7841 21.1981L62.7869 21.1997C62.7587 21.2126 62.7312 21.226 62.7032 21.2398L62.6971 21.2385L62.5884 21.3106C62.557 21.3293 62.5251 21.3466 62.4958 21.3677L62.5046 21.3591V21.3518L62.4973 21.3516L62.4493 21.3962C62.4462 21.3985 62.4425 21.3998 62.4393 21.4023L62.4374 21.4002L62.4321 21.401L62.2043 21.5816L62.204 21.5884L62.2121 21.5888L62.4104 21.4318V21.4323L62.2372 21.5936L62.2357 21.5978L62.2387 21.6011L62.1975 21.6793L62.1378 21.7448L62.1384 21.7543H62.1473L62.1736 21.7254L62.1693 21.7338L62.1721 21.7421L62.1801 21.74L62.2051 21.6912L62.2058 21.6905C62.1835 21.7337 62.1793 21.7816 62.1668 21.8277L62.1531 21.8517L62.1547 21.8573L62.1587 21.8564C62.1503 21.8957 62.1258 21.9311 62.1258 21.9719C62.1258 21.9736 62.1254 21.9753 62.1254 21.9772L62.1247 21.9778L62.1361 21.9099L62.1327 21.9052L62.128 21.9078L62.1143 21.988V21.9891L62.1144 21.9901L62.0666 22.047L62.0662 22.0541L62.0733 22.0557L62.0968 22.0491L62.1068 22.0598C62.091 22.0816 62.0689 22.0987 62.0527 22.1208C62.051 22.1232 62.0555 22.1253 62.054 22.1279L62.0173 22.1587V22.1669L62.0261 22.1673L62.0563 22.1409C62.0504 22.1653 62.0435 22.195 62.0674 22.1999C62.0655 22.2021 62.0637 22.2042 62.0618 22.2063L62.0223 22.2307L62.021 22.2315L62.0207 22.2392L62.0283 22.2408L62.0311 22.2388L62.0339 22.2383C62.0295 22.2433 62.0249 22.2483 62.0207 22.2534C62.0383 22.2365 62.0709 22.248 62.0826 22.2695C62.0879 22.2791 62.0843 22.2908 62.0845 22.3016L62.0609 22.3153L62.0575 22.3205L62.0624 22.3247L62.0851 22.3109C62.0848 22.3209 62.0886 22.3303 62.087 22.3401C62.0682 22.4564 62.0442 22.5743 61.9861 22.6778C61.9805 22.6879 61.9698 22.6949 61.9636 22.7048L61.9848 22.6602L61.9824 22.6535L61.9761 22.6553L61.9397 22.7335C61.9225 22.7561 61.9067 22.7795 61.8855 22.7987L61.885 22.7925L61.8741 22.7908L61.8284 22.8161L61.8262 22.8166L61.8246 22.8182L61.7652 22.8544L61.7599 22.8647L61.7634 22.8684C61.7454 22.8755 61.7308 22.8899 61.7117 22.8937C61.7112 22.8954 61.7145 22.8947 61.7145 22.8965L61.6701 22.9049L61.6633 22.9134L61.6701 22.9228L61.7355 22.9492L61.6484 22.9639L61.6453 22.9689L61.6507 22.9726L61.7518 22.9558L61.7567 22.9576C61.7238 22.9802 61.6976 23.0034 61.6684 23.0263L61.4031 23.0656L61.3962 23.0744L61.4031 23.0834L61.4532 23.0955L61.2764 23.1384L61.2696 23.1489L61.2788 23.1568L61.3453 23.1505L61.2662 23.176L61.2627 23.1823L61.2692 23.1859L61.2851 23.1813C61.2428 23.2031 61.2001 23.2249 61.1573 23.2468L61.0227 23.2826L61.0153 23.2933L61.0242 23.3023L60.9655 23.3191L60.9583 23.3297L60.9682 23.3382L61.0008 23.3407C60.921 23.3957 60.8213 23.4381 60.7203 23.4799L60.6216 23.5147L60.6163 23.5222L60.6216 23.5288L60.7138 23.5445C60.7062 23.5678 60.6826 23.5818 60.6607 23.5933C60.6473 23.6001 60.6345 23.607 60.6212 23.6138L60.5518 23.6147L60.669 23.5514L60.6717 23.5411L60.6607 23.5379L60.5148 23.6163L60.511 23.6252L60.5191 23.6312L60.5897 23.6302C60.557 23.6472 60.5245 23.6641 60.492 23.681C60.4937 23.6846 60.4893 23.6881 60.4908 23.6919L60.4214 23.7332L60.4187 23.7427L60.4274 23.7469L60.4866 23.7276C60.4805 23.7772 60.4469 23.8257 60.4046 23.861C60.3645 23.8941 60.3274 23.9311 60.2894 23.9666Z" fill="#292929"/>
<path class="chicken" d="M52.9477 26.6524L52.8489 26.5587L52.8436 26.5433C52.8543 26.5494 52.8625 26.5589 52.8733 26.5649C52.8903 26.5745 52.9056 26.5856 52.9219 26.5956L52.9477 26.6524ZM52.7972 26.5099L52.8061 26.5159C52.8122 26.5197 52.8171 26.5247 52.8233 26.5284L52.8263 26.5372L52.7972 26.5099ZM52.7528 26.5628L52.6908 26.4317C52.6962 26.4377 52.7048 26.4405 52.7107 26.4461L52.7459 26.4795L52.7528 26.5628ZM52.6108 26.3358L52.6123 26.3115C52.6176 26.3183 52.6219 26.3254 52.6274 26.3319L52.6434 26.366L52.6108 26.3358ZM52.5983 26.2921L52.597 26.3062L52.5937 26.286C52.5951 26.2881 52.5967 26.2901 52.5983 26.2921ZM52.3647 25.8182L52.3687 25.7178C52.3736 25.7294 52.3783 25.741 52.3831 25.7528C52.3841 25.7577 52.3846 25.763 52.3853 25.7681L52.3647 25.8182ZM52.4422 24.3656L52.4909 24.3112L52.6208 24.2612L52.4422 24.3656ZM52.7684 24.0867C52.7707 24.0875 52.7727 24.0884 52.775 24.0894L52.761 24.0892L52.7684 24.0867ZM54.7971 23.2318C54.7909 23.2366 54.7941 23.246 54.7862 23.2465C54.778 23.2472 54.7699 23.2443 54.7614 23.2425L54.7971 23.2318ZM55.3957 22.405L55.4054 22.3973C55.4035 22.4005 55.3998 22.4022 55.3982 22.4056L55.3957 22.405ZM55.4714 22.3211L55.4708 22.3203L55.4717 22.3209L55.4714 22.3211ZM56.488 21.9037L56.4854 21.9202L56.4863 21.923C56.4779 21.9234 56.4704 21.923 56.4618 21.9234L56.488 21.9037ZM56.5164 21.9228C56.5151 21.9228 56.5141 21.9227 56.5141 21.9227L56.5161 21.9207V21.9215L56.5164 21.9228ZM56.9997 21.9645L56.999 21.9812C56.9944 21.9793 56.9905 21.9761 56.9857 21.9744L56.9997 21.9645ZM58.0325 22.9571L58.0336 22.956L58.0329 22.9568L58.0325 22.9571ZM57.4196 23.4484L57.3596 23.5114C57.3739 23.4802 57.3922 23.4512 57.4108 23.4219L57.3968 23.4513L57.4004 23.4609L57.4095 23.4582L57.4686 23.3314L57.4196 23.4484ZM55.6699 26.4976C55.6892 26.4937 55.7071 26.487 55.7262 26.4826L55.7265 26.4896H55.7298L55.6514 26.5161L55.6699 26.4976ZM55.5207 26.561L55.5487 26.5312L55.6451 26.5052L55.6249 26.5253L55.5207 26.561ZM55.4126 26.5967V26.5869L55.3972 26.5864L55.3127 26.6615L55.3813 26.5769L55.4466 26.5591L55.4126 26.5967ZM55.1929 26.76L55.2513 26.7031L55.2533 26.6967L55.2595 26.6965L55.3517 26.59C55.3538 26.5892 55.3557 26.5879 55.3579 26.5872L55.2638 26.7031L55.2645 26.7045L55.2215 26.7423L55.1929 26.76ZM55.1539 26.7845L55.1123 26.7984L55.2552 26.6421L55.223 26.7065L55.1677 26.7568L55.1647 26.7709L55.173 26.7727L55.1539 26.7845ZM55.234 27.0828L55.2261 27.0865C55.2212 27.0815 55.2164 27.0767 55.2118 27.0715C55.1876 27.046 55.173 27.0144 55.1514 26.9867L55.1509 26.9814L55.1435 26.9751C55.1317 26.9595 55.1203 26.9436 55.1095 26.9274L55.1115 26.923L55.1065 26.9146L55.1019 26.9167C55.0936 26.9038 55.0832 26.8923 55.0753 26.8789L55.0759 26.8733L55.0769 26.871L55.234 27.0828ZM56.1473 27.9459C56.1718 27.9455 56.196 27.9462 56.2202 27.9458L56.1473 27.9463V27.9459ZM55.9991 27.9463C56.0024 27.9463 56.006 27.9463 56.0096 27.9463L56.0089 27.9474L55.9985 27.9475L55.9991 27.9463ZM55.9534 27.9476L55.9543 27.9464C55.9609 27.9464 55.9675 27.9464 55.9736 27.9464L55.9731 27.9476H55.9534ZM55.4554 27.9492L55.4561 27.9476C55.5112 27.9483 55.5662 27.9468 55.6212 27.9474L55.6222 27.9503L55.4472 27.9515L55.4554 27.9492ZM54.3016 27.9366C54.3494 27.9376 54.3969 27.9387 54.4448 27.9395L54.256 27.9399L54.3016 27.9366ZM53.2533 27.908C53.2558 27.9081 53.258 27.9081 53.2599 27.9081C53.2785 27.9121 53.2978 27.9138 53.3168 27.9165L53.2527 27.9216L53.2533 27.908ZM55.8286 26.4556L55.7391 26.4862L55.7497 26.4765C55.776 26.4701 55.8025 26.4631 55.8286 26.4556ZM55.3199 26.6039L55.2618 26.6713L55.2778 26.6226C55.2918 26.6166 55.3054 26.6095 55.3199 26.6039ZM55.0965 26.8023L55.1014 26.802L55.0958 26.8038L55.0965 26.8023ZM55.2539 27.1148C55.2476 27.1087 55.2417 27.1025 55.2358 27.0964L55.2383 27.0897L55.2346 27.0834L55.252 27.1067L55.2539 27.1148ZM56.0952 27.946L56.0956 27.9467L56.0368 27.9472L56.0372 27.9462C56.0567 27.9462 56.0759 27.9462 56.0952 27.946ZM55.8107 27.9468C55.8496 27.947 55.8884 27.9467 55.9274 27.9466L55.9259 27.9479L55.8097 27.949L55.8107 27.9468ZM55.6715 27.9472C55.7107 27.9475 55.75 27.9467 55.7892 27.9468L55.7878 27.9491L55.6699 27.9499L55.6715 27.9472ZM55.6487 27.9472L55.6468 27.95L55.637 27.9502L55.6387 27.9472C55.6418 27.9472 55.6454 27.9472 55.6487 27.9472ZM55.1817 26.6649C55.1912 26.6603 55.201 26.6568 55.2105 26.6522L55.1631 26.6998L55.1817 26.6649ZM55.0998 26.7721L55.0906 26.7881L55.0914 26.7894L55.0848 26.8008L55.0858 26.7913L55.0998 26.7721ZM55.0439 26.8348C55.0432 26.8332 55.0418 26.8324 55.0407 26.831L55.0442 26.8063L55.0671 26.7709L55.0679 26.7628L55.0613 26.758L55.082 26.7165C55.0895 26.7117 55.0945 26.7046 55.1017 26.7001C55.1072 26.697 55.1135 26.6955 55.119 26.6925L55.0535 26.8009L55.0573 26.8137L55.0716 26.8107L55.0693 26.8259L55.0514 26.8455C55.0494 26.8417 55.0462 26.8387 55.0439 26.8348ZM55.0631 26.8616L55.0651 26.8579L55.0646 26.8636C55.0639 26.8628 55.0634 26.8624 55.0631 26.8616ZM54.7517 27.0977C54.7621 27.1101 54.7726 27.1231 54.783 27.1355L54.7454 27.0949L54.7477 27.0937C54.7488 27.0945 54.7511 27.0968 54.7517 27.0977ZM54.6165 26.9506C54.6165 26.9506 54.6175 26.9524 54.6185 26.9532L54.6145 26.9515L54.6165 26.9506ZM54.5916 26.9241L54.5936 26.9201C54.5956 26.9227 54.5974 26.9254 54.5994 26.9281L54.5974 26.9437L54.5868 26.9389L54.5815 26.9281L54.5916 26.9241ZM54.4604 26.8554C54.4718 26.8497 54.4812 26.8416 54.493 26.8367L54.4525 26.8648L54.4604 26.8554ZM53.9314 26.9179C54.0198 26.9024 54.1082 26.8868 54.1972 26.8713C54.2036 26.8702 54.2116 26.872 54.2187 26.8712L54.0952 26.9124L53.9314 26.9179ZM53.8929 26.9477L53.8934 26.9473L53.8932 26.9494C53.8932 26.9489 53.8929 26.9484 53.8929 26.9477ZM53.9602 27.4783C53.959 27.4728 53.959 27.4673 53.9582 27.4621L53.9623 27.4779L53.9602 27.4783ZM55.0311 26.7591C55.0331 26.7559 55.0376 26.7547 55.0399 26.7518L55.0318 26.7662C55.0331 26.7638 55.0299 26.7614 55.0311 26.7591ZM54.0153 26.9388L53.9735 26.9314L54.0419 26.9299L54.0153 26.9388ZM54.5642 26.8754V26.8756C54.5675 26.8819 54.5701 26.8875 54.5741 26.8944L54.5734 26.9111L54.5606 26.8839L54.5642 26.8754ZM55.2174 27.8073L55.2072 27.8023L55.2026 27.8098C55.1863 27.809 55.175 27.8234 55.1605 27.817C55.1493 27.8023 55.1429 27.7845 55.1269 27.7753C55.1113 27.7665 55.0909 27.7739 55.0737 27.7696C55.0697 27.7674 55.0657 27.7649 55.0617 27.763L55.1468 27.7709L55.1505 27.7542L55.0902 27.7202L55.0187 27.7295L54.9815 27.7455C54.9731 27.7451 54.9652 27.743 54.9567 27.7427C54.8261 27.7398 54.6964 27.7214 54.5662 27.7111L54.5132 27.6983L54.4724 27.7033H54.4711L54.4698 27.7025L54.4686 27.7032C54.374 27.6944 54.2791 27.6929 54.1854 27.6802C54.177 27.6734 54.1645 27.6723 54.1577 27.6633C54.135 27.6633 54.1133 27.659 54.0918 27.6548L54.0163 27.5743C54.01 27.5636 54.0018 27.5559 53.9973 27.5442L53.995 27.5346L53.993 27.527L53.9894 27.4946L53.9835 27.4897L53.9597 27.3941L53.9685 27.4099L53.9765 27.4119L53.9789 27.4041L53.932 27.2572C53.9228 27.1935 53.9135 27.1302 53.9079 27.0661L53.9186 26.9368L53.9849 26.9486L53.9789 26.9508L53.9754 26.9571L53.9817 26.9601L54.0054 26.9524L54.0286 26.9567L54.0385 26.9506L54.0338 26.943L54.077 26.9289L54.1809 26.9259L54.189 26.9178L54.1809 26.9102L54.1299 26.9115L54.237 26.8769L54.2257 26.8859L54.225 26.8958L54.2357 26.8982L54.2857 26.8708C54.287 26.871 54.2887 26.8704 54.2903 26.8706L54.1913 26.9718L54.1916 26.9827H54.203L54.3049 26.882C54.3122 26.8848 54.3156 26.8908 54.3213 26.8952L54.3132 26.9142L54.3173 26.9234L54.3258 26.9214L54.2931 26.9617L54.2953 26.9713L54.3059 26.9711L54.3597 26.913C54.3611 26.9122 54.3623 26.9118 54.3637 26.9108V26.9124L54.3745 26.9143L54.3762 26.913L54.4071 26.888L54.4117 26.8833C54.4133 26.8823 54.4153 26.8813 54.4169 26.8804L54.3958 26.9042V26.916L54.4071 26.9178L54.526 26.8338C54.5273 26.8348 54.528 26.8363 54.5293 26.8374L54.5122 26.8541L54.5119 26.8654L54.5238 26.868L54.546 26.8557C54.5486 26.858 54.5502 26.8609 54.5528 26.8632L54.543 26.8839L54.5731 26.9524L54.6448 26.984C54.6682 27.0098 54.6897 27.0329 54.7091 27.0531V27.0555L54.6417 26.9827L54.6334 26.9826L54.6331 26.9906L54.7067 27.0719L54.7023 27.1019L54.7111 27.1115L54.7232 27.1045L54.7259 27.0932L54.894 27.2788L54.8973 27.2844L54.8986 27.2838L54.9983 27.3941C55.068 27.4749 55.1389 27.5549 55.2023 27.6389L55.2003 27.6463L55.2066 27.6558L55.2135 27.6523C55.2232 27.6658 55.2358 27.6777 55.2457 27.6913C55.2712 27.7219 55.298 27.7616 55.2801 27.7964C55.2696 27.8162 55.2409 27.805 55.2174 27.8073ZM56.5984 27.904L56.6183 27.9231L56.6168 27.9339C56.6007 27.9229 56.581 27.9174 56.5644 27.9077L56.5669 27.9046L56.5984 27.904ZM52.4223 24.3909L52.517 24.3358L52.5192 24.3365L52.5956 24.2996C52.5562 24.3247 52.5108 24.3446 52.4675 24.3653C52.4259 24.3852 52.3965 24.4202 52.3646 24.452L52.42 24.3903L52.4223 24.3909ZM57.5404 23.3098L57.5595 23.2719L57.5845 23.2376L57.5404 23.3098ZM52.9576 26.6181L53.144 26.744L53.1515 26.7424L53.1511 26.7403C53.1711 26.7535 53.1917 26.7658 53.2116 26.7786L53.2737 26.8302L53.288 26.83V26.8268C53.3004 26.8342 53.3117 26.8427 53.3246 26.8498L53.3242 26.8523C53.3132 26.8541 53.2997 26.8498 53.2913 26.857C53.2626 26.8812 53.2775 26.9162 53.3004 26.9488L53.2971 26.9597L53.302 26.9655L53.3014 26.9675L53.2907 26.9792L53.2884 26.9859L53.2926 26.9918L53.3374 27.0204L53.369 27.055L53.3987 27.0709L53.4001 27.0722C53.4004 27.0727 53.4008 27.0734 53.4008 27.0734C53.4118 27.0868 53.42 27.1017 53.4305 27.1149L53.433 27.1204L53.4356 27.1666L53.4428 27.174L53.4514 27.1686L53.4534 27.147V27.1469C53.4585 27.1539 53.4637 27.1609 53.4686 27.1682L53.5598 27.3878L53.5558 27.3893L53.5549 27.3934L53.5672 27.4328L53.5718 27.47C53.5682 27.5838 53.5333 27.6971 53.4335 27.7602C53.401 27.7807 53.3632 27.797 53.3285 27.8154L53.254 27.8524L53.2201 27.8813L53.2191 27.8842C53.2089 27.8891 53.1973 27.8914 53.1874 27.8973C53.1946 27.8994 53.202 27.8985 53.2089 27.9004L53.1874 27.9118L53.1837 27.9249L53.1979 27.9284L53.2089 27.9223L53.2099 27.9245L53.2116 27.9279L53.2063 27.9406L53.2175 27.9476L53.7164 27.9244L53.7177 27.9232C53.7504 27.9243 53.7837 27.9256 53.8163 27.9265L53.819 27.9273L53.8187 27.9275L53.8204 27.9343L53.8831 27.9541L53.8932 27.9512L53.9003 27.9534L54.0352 27.9313C54.1045 27.9328 54.174 27.9341 54.2436 27.9355L54.2429 27.937L54.2472 27.9399L54.1466 27.9402L54.1409 27.9456L54.1466 27.9512L55.0249 27.9535L55.02 27.9617L55.0358 27.9706L55.0531 27.9536L55.1853 27.9541L55.1912 27.9483C55.2748 27.9498 55.3587 27.9468 55.4423 27.9476L55.4445 27.9516L55.3597 27.9523L55.3541 27.9577L55.3597 27.9631L55.6487 27.9653V27.9654L55.6491 27.9653L55.9596 27.9677L55.9476 27.9864L55.9514 28L55.9665 27.9967L55.9851 27.9679L56.1085 27.9687L56.104 27.9764L56.1081 27.9902L56.1229 27.9866L56.1337 27.969L56.5732 27.9723L56.5883 27.9577L56.5817 27.9512C56.5921 27.952 56.6032 27.9512 56.6138 27.952L56.613 27.9562L56.5843 27.977L56.5791 27.985L56.5863 27.9908L56.6319 27.9674L56.636 27.9524C56.6444 27.9532 56.6534 27.952 56.662 27.953C56.6549 27.9486 56.6453 27.9488 56.6378 27.9446L56.6421 27.9289L56.7035 27.9816L56.7146 27.9845L56.7184 27.9734L56.6476 27.9026L56.6268 27.8981L56.611 27.8788L56.5576 27.8751L56.5543 27.8821L56.5477 27.8807L56.5457 27.8763L56.5406 27.8738L56.4766 27.8636C56.4661 27.8587 56.4562 27.8527 56.4459 27.8481L56.5618 27.8324L56.5658 27.8266L56.5605 27.8223L56.4174 27.8338C56.3786 27.8189 56.3408 27.8074 56.3003 27.7967L56.3064 27.7914L56.2968 27.7781L56.1246 27.7664C56.1134 27.7653 56.1029 27.7612 56.0919 27.7606L56.0912 27.7585L56.0858 27.7596C56.0775 27.7592 56.07 27.7557 56.0618 27.7554C56.0259 27.7545 55.9904 27.7504 55.9543 27.7493C55.9116 27.7409 55.8684 27.733 55.8299 27.7135C55.7862 27.6917 55.7555 27.6705 55.7242 27.6484L55.7219 27.6408L55.7144 27.6426C55.6673 27.6078 55.6255 27.5687 55.5818 27.5097C55.534 27.4445 55.4776 27.3697 55.4199 27.2967L55.4113 27.2529L55.4025 27.2478L55.3964 27.2568L55.3972 27.2632L55.3954 27.2643C55.3954 27.2643 55.3947 27.2636 55.3942 27.2633C55.3904 27.2583 55.3878 27.2524 55.3836 27.2476C55.3735 27.2352 55.361 27.2247 55.3498 27.213L55.3113 27.1621L55.3258 27.1247L55.3222 27.1188L55.3153 27.122L55.3036 27.1517L55.2699 27.1069L55.2651 27.0872L55.2549 27.0817L55.2529 27.0846L55.082 26.8582L55.0909 26.8372L55.0878 26.8311L55.0805 26.8343L55.0809 26.8307L55.0932 26.8205L55.1233 26.8073L55.1708 26.8053L55.199 26.7872L55.4028 26.6095L55.4031 26.6164L55.4118 26.6163L55.4687 26.5531L55.5253 26.5378L55.5041 26.5595L55.5048 26.5665L55.474 26.5768L55.4704 26.5839L55.4773 26.5872L55.6072 26.543L55.6066 26.5438V26.5523H55.6158L55.6339 26.534L55.8286 26.4678L55.829 26.4747L55.8392 26.4746L55.8668 26.4456C55.8874 26.4391 55.9096 26.4367 55.9302 26.4288C55.9458 26.4229 55.9576 26.4098 55.9731 26.4031C55.9945 26.3971 56.0162 26.3914 56.0372 26.3852L56.0402 26.3856L56.0431 26.3835C56.0451 26.383 56.0471 26.3826 56.0491 26.3819L55.9648 26.4309L55.9625 26.4397L55.9718 26.4421L56.0991 26.3681C56.1473 26.3529 56.1917 26.3305 56.2389 26.3124L56.1728 26.3631L56.1723 26.3715L56.1811 26.3731L56.1823 26.3721L56.298 26.2873C56.3485 26.266 56.4018 26.2501 56.4498 26.2232C56.5277 26.1795 56.595 26.1222 56.664 26.0668L56.6659 26.0669L56.6738 26.0596C56.7921 25.9627 56.9037 25.8584 57.0096 25.7492L56.9622 25.8297L56.9461 25.8663L56.9441 25.8505L56.94 25.8447L56.9344 25.8481L56.9252 25.8935L56.9288 25.9002L56.9354 25.8982L56.7613 26.0569L56.5243 26.2048L56.5215 26.2139L56.5317 26.2167L56.7704 26.0679L56.9745 25.8798L56.9739 25.8707L56.965 25.8711L56.937 25.8968L57.0586 25.6903C57.0807 25.6651 57.1052 25.6416 57.1198 25.6121C57.126 25.5997 57.1239 25.5851 57.1283 25.5719L57.2413 25.3793L57.2387 25.3711L57.2303 25.3733L57.1359 25.5338C57.144 25.4962 57.1562 25.4597 57.1587 25.4214C57.1617 25.381 57.1644 25.3404 57.1672 25.3L57.2509 25.0245L57.2473 25.0186L57.2407 25.0219L57.1708 25.2488C57.1734 25.2118 57.1757 25.1745 57.1783 25.1374C57.1882 25.0833 57.1917 25.0281 57.1989 24.9734L57.2061 24.9695L57.257 24.7552L57.2516 24.7467L57.2427 24.7514L57.2088 24.895C57.2195 24.8011 57.2364 24.7078 57.2439 24.6143C57.2474 24.5674 57.2504 24.5203 57.254 24.4734L57.2603 24.4697L57.2994 24.2553L57.2943 24.2478L57.2864 24.2521L57.259 24.4025C57.2695 24.2665 57.2798 24.1303 57.2883 23.9943C57.2901 23.9696 57.2857 23.9046 57.2757 23.8484L57.2937 23.815L57.291 23.8073L57.2831 23.8094L57.2761 23.8233C57.2779 23.8007 57.2825 23.7787 57.2855 23.7562L57.2878 23.7585L57.2948 23.7525L57.2994 23.6996L57.3463 23.6252L57.344 23.6172L57.3351 23.6192L57.3021 23.672L57.3063 23.6216L57.3047 23.6203C57.3053 23.6181 57.305 23.6163 57.3057 23.6145L57.3066 23.6127L57.306 23.6108C57.3066 23.6084 57.3063 23.6058 57.3073 23.6033C57.3119 23.5874 57.3259 23.5757 57.3318 23.5602L57.422 23.4625L57.4294 23.459L57.433 23.4506L57.4584 23.4229L57.4582 23.4156L57.4509 23.4158L57.4448 23.4222L57.5003 23.2887C57.517 23.2714 57.5412 23.2623 57.5595 23.2464L57.5502 23.2543L57.5124 23.3478L57.5128 23.3507L57.5144 23.3529L57.4706 23.4259L57.4731 23.4341L57.4817 23.4321L57.5947 23.2405L57.5937 23.2346L57.5875 23.2344L57.609 23.2133L57.6338 23.194V23.1927C57.6758 23.1641 57.7096 23.1262 57.7564 23.1053L57.8356 23.0694C57.888 23.0492 57.9378 23.0276 57.9852 23.0021L58.0245 22.9843L58.0729 22.9563L58.0992 22.9137L58.0987 22.8978L58.0982 22.8976L58.1005 22.8936L58.1002 22.8924C58.1061 22.8828 58.1204 22.8799 58.125 22.8691C58.1186 22.854 58.0964 22.8505 58.0828 22.8403C58.0839 22.8371 58.0878 22.8353 58.0888 22.8321C58.0803 22.8274 58.0649 22.8222 58.0554 22.8172L58.0332 22.8064C58.0205 22.8007 58.0133 22.7901 58.0016 22.7845C57.9768 22.7725 57.9513 22.7701 57.9278 22.7603C57.886 22.7431 57.8526 22.7341 57.8089 22.7216C57.769 22.7101 57.7328 22.6907 57.6884 22.682C57.673 22.6692 57.6636 22.6516 57.6486 22.6382L57.6385 22.6229L57.6332 22.6217C57.5817 22.5752 57.5416 22.519 57.4938 22.4686L57.4853 22.4514L57.4754 22.4484C57.4614 22.4331 57.4471 22.418 57.4333 22.4023L57.4262 22.3867L57.4167 22.3839C57.4034 22.3684 57.3884 22.3543 57.3752 22.3385L57.3715 22.319L57.3614 22.3134L57.3583 22.3183L57.3576 22.2994L57.3524 22.2942L57.3465 22.2994V22.307C57.3428 22.3024 57.3384 22.2987 57.3348 22.2942L57.3096 22.2474L57.3027 22.2455L57.2999 22.2514L57.3041 22.2605C57.2855 22.2355 57.2583 22.2167 57.2407 22.191C57.2124 22.15 57.1808 22.1105 57.1466 22.0738L57.1476 22.072L57.1137 22L57.1035 21.9971L57.0987 22.006L57.1124 22.0377C57.1035 22.0307 57.0913 22.0289 57.0823 22.0227L57.082 22.0221L57.0656 22.0062L57.0617 21.9844L57.0535 21.9736L57.0399 21.976L57.0343 21.982L57.0326 21.9744L57.0282 21.9684L57.0206 21.9668L57.0193 21.9462L57.0134 21.9382L57.0033 21.9399L56.9716 21.9676C56.94 21.9569 56.909 21.9481 56.8753 21.9421L56.8811 21.9342L56.8804 21.9243L56.8701 21.9207L56.8188 21.9336C56.8071 21.9322 56.7956 21.9295 56.7839 21.9284L56.7829 21.925L56.7756 21.9214L56.7499 21.9234C56.7429 21.9228 56.7359 21.9207 56.7293 21.9203C56.6821 21.9172 56.6235 21.9223 56.5709 21.9222L56.6032 21.9129L56.6102 21.9008L56.598 21.8942L56.5402 21.9099L56.5419 21.9012L56.5377 21.8908L56.5261 21.89L56.5079 21.9024L56.5102 21.8829L56.5046 21.875L56.4939 21.8766L56.435 21.9236C56.2894 21.9316 56.1399 21.9511 55.994 21.9909L56.0053 21.9793L56.005 21.9648H55.9897L55.9586 21.996L55.9566 21.9923L55.9481 21.9877L55.9397 21.9923L55.9298 22.0043V22.0028L55.9239 21.9978L55.9188 22.0028L55.9185 22.0175C55.8392 22.0434 55.7668 22.0788 55.6981 22.1177L55.6964 22.1162H55.6857L55.6842 22.1237C55.6602 22.138 55.6315 22.1466 55.6092 22.1624L55.5967 22.1612L55.5821 22.1472L55.5701 22.1436L55.5641 22.1543L55.5877 22.1796L55.5939 22.1801C55.55 22.2131 55.5234 22.2598 55.489 22.3008L55.4832 22.2698L55.4704 22.2628L55.4615 22.2755L55.4661 22.2995L55.4615 22.301L55.4574 22.3034L55.4505 22.3137V22.3259L55.4545 22.3353L55.4561 22.338L55.3855 22.3986L55.3842 22.4042L55.3888 22.4076L55.3865 22.411L55.3868 22.4185C55.3861 22.42 55.3845 22.4206 55.3839 22.4221C55.3832 22.4233 55.3825 22.4243 55.3819 22.4255L55.378 22.4173L55.3674 22.4125L55.3627 22.4212L55.3684 22.442L55.3709 22.4452C55.3533 22.4873 55.3381 22.5321 55.3047 22.5644C55.2794 22.5888 55.2463 22.6048 55.2159 22.6233C55.2121 22.6255 55.2108 22.6301 55.2072 22.6325L55.2066 22.6312L55.1912 22.638L55.1824 22.6579C55.179 22.6603 55.1774 22.6639 55.1743 22.6663L55.1735 22.658L55.165 22.6485L55.1536 22.6531L55.1322 22.6974L55.1294 22.6648L55.1206 22.6573L55.1124 22.6648L55.1147 22.7279C55.1019 22.7404 55.0893 22.753 55.0779 22.7663L55.0661 22.7511L55.0389 22.7488L55.0358 22.7551L55.0419 22.7583L55.058 22.7609L55.0661 22.7738L55.0617 22.7829C55.0603 22.7846 55.0583 22.7862 55.0567 22.7881L55.0455 22.7929L55.0365 22.8025L55.0396 22.8056C55.0266 22.8226 55.0066 22.8342 54.9948 22.8522L54.9881 22.8482L54.9815 22.8552L54.9832 22.8642C54.964 22.8946 54.948 22.9273 54.9312 22.9595L54.9248 22.942L54.9142 22.937L54.909 22.946L54.9208 22.9819C54.9088 23.0066 54.897 23.0316 54.8859 23.0569L54.8745 23.0466L54.8667 23.048L54.8628 23.0547L54.8639 23.1016L54.8647 23.1023C54.8501 23.1374 54.8313 23.1695 54.8165 23.2049C54.817 23.2054 54.8154 23.2057 54.8154 23.2057L54.812 23.1955L54.8231 23.1883L54.83 23.1759L54.8213 23.162L54.8055 23.1696L54.7979 23.1725L54.7856 23.1756L54.7823 23.1871L54.7902 23.2062L54.7591 23.213L54.7373 23.2353V23.2385C54.732 23.2373 54.7269 23.2364 54.7209 23.236C54.7044 23.2346 54.6889 23.2436 54.6733 23.2493L54.6667 23.2459L54.5969 23.2678C54.5132 23.2976 54.4242 23.3113 54.3344 23.3203L54.2993 23.3216L54.2908 23.3291L54.297 23.3379L54.3657 23.3517C54.3895 23.3577 54.413 23.3578 54.4316 23.3729L54.3719 23.3812L54.3686 23.378L54.3634 23.3773L54.2429 23.3973C54.2079 23.3963 54.1724 23.3932 54.1385 23.3993C54.1201 23.4027 54.1077 23.4166 54.0911 23.4229L54.0123 23.4359L54.0081 23.4424L54.0156 23.447L54.0541 23.441C54.0521 23.4419 54.0505 23.4426 54.049 23.4436L53.7106 23.5834L53.7083 23.5902L53.7164 23.5929L53.8271 23.5468C53.8006 23.558 53.7792 23.5786 53.7485 23.5817C53.7259 23.6399 53.6577 23.6534 53.5979 23.6618C53.5082 23.6742 53.4193 23.7373 53.3294 23.735L53.1923 23.7112L53.1826 23.717L53.188 23.7261L53.2616 23.7434C53.2449 23.7453 53.2278 23.7432 53.2125 23.7485C53.2311 23.7581 53.2381 23.7786 53.244 23.7978L53.0614 23.8193L53.0533 23.8273L53.0614 23.8351L53.1693 23.842L53.1763 23.8357L53.1693 23.8281L53.1428 23.826L53.2492 23.8137L53.2522 23.8103C53.2522 23.8117 53.254 23.8122 53.254 23.8134C53.1025 23.8432 52.9576 23.8998 52.8283 23.9793C52.8291 23.9805 52.8301 23.9817 52.8309 23.9829L52.8296 23.9853L52.8342 23.988C52.8416 23.9987 52.849 24.0095 52.8563 24.0202L52.8024 24.0203L52.7936 24.0287L52.8024 24.0368L52.8469 24.0373C52.8429 24.0385 52.84 24.0413 52.8357 24.0429L52.7056 24.0902L52.6987 24.1005L52.708 24.1082L52.7995 24.1057C52.7505 24.1144 52.7087 24.1405 52.6642 24.1619L52.5774 24.1674L52.5687 24.1759L52.5774 24.1847L52.6026 24.1877C52.5947 24.1928 52.584 24.193 52.5764 24.1985C52.5823 24.2039 52.5916 24.2041 52.5983 24.2084L52.5761 24.2123L52.5695 24.2224L52.5813 24.2295L52.6278 24.2219C52.6391 24.2262 52.648 24.2351 52.6604 24.2367C52.6594 24.2384 52.6567 24.239 52.6561 24.2407L52.6466 24.2463L52.6437 24.2422L52.6388 24.2414L52.4776 24.3012L52.4746 24.3099L52.4761 24.3107L52.307 24.4974L52.3074 24.5063H52.3077C52.3024 24.5143 52.3024 24.5244 52.2979 24.5326L52.291 24.5343L52.2195 24.6674L52.2222 24.6759L52.231 24.6735L52.2777 24.5863C52.2648 24.6185 52.2444 24.6476 52.2414 24.6815C52.2374 24.7271 52.2417 24.7745 52.2234 24.8168C52.2215 24.8212 52.2164 24.8239 52.2139 24.8282L52.1976 24.787L52.2304 24.7086L52.23 24.7014H52.2227L52.1841 24.7882L52.2045 24.8395C52.19 24.8606 52.1738 24.8801 52.1552 24.8984L52.1483 24.9003L52.1386 24.9185C52.1359 24.921 52.1343 24.9239 52.1316 24.9265C52.0366 25.026 51.9887 25.1633 52.0023 25.2959C52.0196 25.2858 52.0421 25.2865 52.0614 25.2934L52.0047 25.3988L52.0079 25.4085L52.0176 25.406L52.0666 25.3145C52.067 25.3956 52.0673 25.4768 52.068 25.5579C52.0863 25.5334 52.115 25.5158 52.1461 25.5091C52.1478 25.5141 52.1491 25.5191 52.1502 25.5242L52.1362 25.7178L52.1432 25.7244L52.1509 25.7178L52.1611 25.5611C52.1713 25.5965 52.1813 25.632 52.1915 25.6674C52.1986 25.6679 52.2039 25.6617 52.2111 25.6605L52.2179 25.7351L52.2257 25.7418L52.2325 25.7351L52.2245 25.6555C52.2366 25.6514 52.2502 25.6518 52.2589 25.6431C52.2825 25.6882 52.2913 25.7401 52.2841 25.7899C52.2893 25.7839 52.295 25.778 52.3001 25.7721L52.3037 25.8353L52.3116 25.8417L52.3185 25.8353L52.3133 25.7574C52.3274 25.7415 52.341 25.7259 52.355 25.7102L52.3468 25.8634L52.3534 25.8707L52.3629 25.8655L52.3899 25.7964C52.3932 25.8123 52.3947 25.8285 52.3978 25.8444C52.4083 25.8956 52.4309 25.944 52.4468 25.9945L52.4197 26.0856L52.425 26.0939L52.4338 26.0892L52.4547 26.0188C52.4572 26.0263 52.4592 26.0338 52.4618 26.0413L52.4671 26.0697L52.472 26.0727C52.4741 26.0784 52.4756 26.0846 52.4779 26.0903L52.4664 26.1321L52.4717 26.1407L52.4807 26.136L52.4863 26.1162C52.4922 26.1302 52.4945 26.1456 52.5009 26.1594L52.5013 26.1667L52.5079 26.1723L52.5095 26.171C52.5108 26.1737 52.5134 26.1755 52.5148 26.1782L52.5238 26.2191L52.5174 26.2597L52.5231 26.268L52.5317 26.2634L52.5327 26.257L52.5434 26.3036L52.5516 26.308L52.5571 26.3001L52.5383 26.2219L52.5399 26.2125C52.5506 26.2314 52.5664 26.2467 52.5781 26.2647L52.5937 26.3566L52.5893 26.4209L52.5963 26.428L52.6049 26.4209L52.6073 26.3835L52.6098 26.3802L52.608 26.3711L52.6098 26.3496L52.657 26.395L52.6679 26.4174L52.6676 26.4527L52.6751 26.4595L52.6825 26.4527V26.4483L52.76 26.6083L52.7683 26.6106L52.7714 26.602L52.7636 26.5856L52.7691 26.5803L52.7613 26.4944L52.835 26.5644L52.8622 26.6452L52.8715 26.65L52.877 26.6416L52.8582 26.586L52.9628 26.6855L52.9666 26.6937L52.9739 26.6957L53.0319 26.7507H53.0418V26.7413L52.9692 26.6728L52.9386 26.606C52.9447 26.61 52.9513 26.6142 52.9576 26.6181Z" fill="#292929"/>
<path class="chicken"  d="M67.6396 23.8179L67.8436 23.7838L67.912 23.7535H67.9147L67.9258 23.7663C67.8685 23.7845 67.8108 23.8012 67.754 23.8215L67.6992 23.831L67.6961 23.8356L67.7009 23.8386C67.6927 23.8416 67.6839 23.8435 67.6759 23.8466L67.6396 23.8179ZM68.1904 23.6793L68.1225 23.6817L68.1749 23.6707L68.1904 23.6793ZM68.2673 23.6508L68.2839 23.6511C68.2563 23.658 68.2307 23.6697 68.2032 23.6769L68.1876 23.668L68.2673 23.6508ZM68.7596 23.4604L68.8085 23.4642C68.795 23.4672 68.7809 23.4693 68.767 23.4721L68.7596 23.4604ZM69.0174 23.3848L69.0354 23.3842L69.0546 23.3907C69.0479 23.3928 69.0409 23.3948 69.034 23.397L69.0174 23.3848ZM69.1463 23.2566L69.1341 23.2532L69.2162 23.185C69.2142 23.1939 69.2118 23.2022 69.2101 23.2109L69.1906 23.2273V23.2255L69.1736 23.2246L69.1578 23.2395L69.1463 23.2566ZM69.2352 23.1079C69.2329 23.117 69.2307 23.1263 69.2284 23.1354L69.2089 23.1468L69.2352 23.1079ZM69.4179 22.5367L69.3078 22.5891L69.3473 22.5544C69.3788 22.5322 69.4121 22.5167 69.4515 22.5127L69.4179 22.5367ZM70.2068 21.9288C70.2086 21.9286 70.2103 21.9287 70.2119 21.9284C70.2116 21.9262 70.2077 21.9274 70.2068 21.9256L70.3648 21.9286L70.3436 21.936C70.2997 21.9373 70.2557 21.9225 70.2119 21.9284C70.2119 21.929 70.2126 21.9286 70.2126 21.9286C70.2126 21.9286 70.2106 21.9296 70.2106 21.9305L70.2068 21.9288ZM71.6262 22.2577L71.6302 22.2634L71.6352 22.2644L71.6365 22.2599L71.6359 22.2588L71.6428 22.2596L71.6499 22.2585L71.6543 22.2536L71.6946 22.301L71.7026 22.3379C71.6704 22.3066 71.6359 22.2777 71.5963 22.254L71.6262 22.2577ZM71.7124 22.3226L71.7282 22.3584C71.7234 22.353 71.7161 22.35 71.7109 22.3447L71.7038 22.3122L71.7124 22.3226ZM71.8445 22.5816L71.8538 22.6349L71.8468 22.6574C71.8445 22.6336 71.8468 22.6082 71.8426 22.5851L71.8445 22.5816ZM71.8729 24.1341L71.8871 24.1513L71.8974 24.2008L71.8968 24.2024C71.8866 24.1798 71.8798 24.1565 71.8718 24.1332L71.8729 24.1341ZM71.8987 24.2076C71.8984 24.2068 71.8981 24.2058 71.8977 24.2049L71.8984 24.2056L71.8987 24.2076ZM70.771 27.7747L70.8159 27.8003L70.8344 27.8169C70.814 27.8014 70.794 27.7865 70.7703 27.7751L70.771 27.7747ZM70.7735 27.9805L70.787 27.9645L70.7883 27.9618C70.8001 27.9602 70.8126 27.9623 70.8245 27.9605L70.7735 27.9805ZM69.4162 27.9566C69.473 27.9548 69.5294 27.9505 69.586 27.9507C69.6246 27.9508 69.6633 27.9553 69.7021 27.9566H69.4162ZM68.1956 27.0509L68.2134 27.0655C68.2157 27.0677 68.2174 27.0704 68.2196 27.0725L68.2147 27.0696L68.1956 27.0509ZM68.1545 26.8403L68.1461 26.8568L68.1263 26.8169C68.1358 26.824 68.1444 26.8334 68.1545 26.8403ZM67.6306 26.3488L67.63 26.3356C67.6396 26.3479 67.6503 26.3597 67.6601 26.3718L67.6705 26.3954L67.6736 26.4074L67.6306 26.3488ZM67.5276 26.2437L67.5281 26.2432L67.5277 26.247L67.5276 26.2437ZM66.9163 25.0983L66.9726 25.0305C66.9816 25.0483 66.9779 25.0685 66.9796 25.0876L66.9163 25.0983ZM67.0171 24.9764L67.063 24.9213C67.0542 24.9477 67.0367 24.9602 67.0171 24.9764ZM66.9876 24.6206L67.1013 24.5828C67.097 24.5875 67.0888 24.589 67.0852 24.5943C67.0753 24.6079 67.0787 24.6248 67.0745 24.6401L66.9876 24.6206ZM67.0978 24.5224L67.2748 24.4366C67.2588 24.4557 67.2503 24.4801 67.2291 24.4946C67.2232 24.4985 67.2181 24.5027 67.212 24.5064L67.0978 24.5224ZM67.9774 23.7496C67.9628 23.754 67.9483 23.7591 67.9335 23.7637L67.9243 23.7529L67.9774 23.7496ZM68.3116 23.6422H68.308L68.3186 23.6399C68.3161 23.6405 68.3137 23.6416 68.3116 23.6422ZM69.0687 23.3863L69.0603 23.3836L69.079 23.3832C69.0755 23.3844 69.0718 23.3853 69.0687 23.3863ZM69.1957 23.2701L69.1703 23.2631L69.1791 23.2508L69.1902 23.24V23.2385L69.2066 23.2248C69.2037 23.24 69.1982 23.2547 69.1957 23.2701ZM68.1673 27.0171H68.1663L68.1618 27.0092C68.1661 27.0141 68.1704 27.0187 68.1749 27.0235L68.1673 27.0171ZM68.5772 27.8542C68.5761 27.8584 68.5754 27.8627 68.5743 27.8669L68.5667 27.8561L68.5767 27.8457C68.5767 27.8486 68.577 27.851 68.5772 27.8542ZM68.8584 27.1282C68.8515 27.0983 68.8609 27.0963 68.8588 27.0769L68.863 27.0865V27.0785L68.8809 27.1747C68.8754 27.1583 68.8626 27.1447 68.8584 27.1282ZM69.5509 26.889L69.5163 26.8434L69.5138 26.843L69.5214 26.8404C69.5387 26.8386 69.5551 26.8326 69.5721 26.8309C69.5682 26.8494 69.5596 26.8668 69.5531 26.8847L69.5509 26.889ZM69.2104 27.4749C69.2084 27.4813 69.2155 27.4857 69.2169 27.4925C69.2162 27.4946 69.2159 27.496 69.2155 27.4981L69.2131 27.4996L69.2111 27.5067L69.2134 27.5072C69.2131 27.5085 69.2124 27.5095 69.2124 27.511L69.2034 27.4877L69.2104 27.4749ZM69.4052 27.6609L69.2838 27.6891L69.2453 27.6777L69.2044 27.6168L69.1979 27.613L69.1935 27.6195L69.2091 27.6539L69.1726 27.6112L69.1197 27.5817L69.0642 27.4863L69.0334 27.416L69.0101 27.3976L68.9751 27.3645L68.9069 27.1832L68.8741 26.9944L68.8751 26.984C68.8997 26.969 68.936 26.9635 69.0026 26.954C69.0246 26.9511 69.0441 26.9416 69.0642 26.9344L69.1902 26.9114L69.264 26.8888C69.2742 26.8864 69.2848 26.885 69.295 26.8829L69.288 26.889L69.2873 26.9044L69.3033 26.9075L69.3724 26.8685C69.3752 26.868 69.3777 26.8673 69.3806 26.8669C69.3919 26.8647 69.4022 26.8632 69.4133 26.8607C69.4169 26.8602 69.4207 26.8591 69.4245 26.8586L69.4252 26.8589L69.4819 26.8541L69.4963 26.849L69.4948 26.855L69.538 26.9136L69.5127 26.9608L69.5169 26.9726L69.5291 26.9695L69.5477 26.936L69.5522 26.9417L69.5599 26.9437L69.5714 26.9595L69.5689 26.9873L69.5739 26.9962L69.5845 26.9977L69.5925 27.0053L69.5983 27.0042C69.5992 27.0253 69.6012 27.0461 69.599 27.0669L69.5714 27.0849L69.5697 27.0933L69.5779 27.0951L69.599 27.0825C69.5983 27.0872 69.5998 27.0921 69.599 27.0968C69.5343 27.2138 69.4876 27.3287 69.3296 27.3958C69.3258 27.3973 69.3227 27.3995 69.3191 27.401L69.3002 27.4072L69.2956 27.4118L69.2963 27.4123C69.2723 27.4221 69.247 27.4305 69.2277 27.4467C69.2252 27.4491 69.228 27.453 69.2254 27.4556C69.2239 27.456 69.2222 27.457 69.2207 27.4574L69.2371 27.4281L69.2377 27.4177L69.2269 27.4157L69.1848 27.4878L69.2059 27.5376C69.2069 27.5394 69.2034 27.5416 69.2046 27.5433C69.2056 27.5448 69.2082 27.5444 69.2091 27.5457L69.2172 27.5641L69.2716 27.584L69.3223 27.5739C69.3251 27.5739 69.3278 27.574 69.3303 27.5739L69.3319 27.5757L69.3368 27.5766L69.3548 27.5783C69.4048 27.5805 69.4397 27.6163 69.4803 27.6433L69.472 27.6497V27.6575L69.481 27.658L69.4925 27.6497C69.5053 27.6595 69.5236 27.6595 69.5343 27.6714L69.4052 27.6609ZM69.3926 27.6908C69.3801 27.6911 69.3674 27.6908 69.3551 27.6918L69.4114 27.6836L69.3926 27.6908ZM69.2319 27.68L69.2432 27.6891C69.2412 27.6883 69.2392 27.6874 69.2374 27.6865L69.2319 27.68ZM69.1768 23.3468L69.1611 23.322L69.1633 23.2772L69.1924 23.2831C69.1889 23.3048 69.1798 23.3251 69.1768 23.3468ZM68.0304 23.7015L68.0717 23.6925L68.1661 23.6889C68.1125 23.7036 68.0609 23.7237 68.0079 23.7399L67.933 23.7443L68.0304 23.7015ZM67.3724 23.8705L67.5747 23.8793C67.5472 23.8898 67.5184 23.895 67.4914 23.9059L67.3724 23.8705ZM72.0193 25.6464L72.0179 25.6558L72.0161 25.6452L72.0193 25.6464ZM67.2877 23.8458L67.2768 23.8549L67.2849 23.8668L67.4639 23.9146C67.4412 23.9241 67.4157 23.9278 67.3927 23.9376C67.4508 23.9444 67.5051 23.9764 67.5357 24.0222C67.4883 24.0664 67.441 24.1106 67.3934 24.1549L67.3158 24.1826L67.3736 24.1406L67.4272 24.1092L67.4283 24.1033L67.4255 24.1026L67.4661 24.0733L67.4666 24.0616L67.4523 24.0607L67.2845 24.1833L67.254 24.2013L67.2527 24.2068L67.2548 24.2072L67.2537 24.215L67.2643 24.2192L67.3645 24.182L67.3641 24.1826L67.2004 24.2987L67.2002 24.3056L67.2075 24.3071L67.3374 24.2182C67.3376 24.2195 67.3369 24.2208 67.3374 24.222L67.253 24.2868V24.2922L67.2595 24.2926L67.3367 24.2331C67.3447 24.2781 67.3464 24.3242 67.3296 24.3671L67.3106 24.3814L67.3105 24.3869L67.314 24.387C67.3111 24.3926 67.3056 24.3963 67.3025 24.4015L67.0213 24.5342L67.0164 24.547L67.0302 24.5539L67.1723 24.5337C67.1681 24.536 67.1649 24.5394 67.1608 24.5418L66.9526 24.6137L66.9461 24.6221L66.9526 24.6298L67.0712 24.6537C67.062 24.7042 67.0665 24.758 67.0748 24.8114L67.0215 24.8075L67.0587 24.6675L67.0507 24.655L67.0369 24.6619L66.9931 24.8149L66.9953 24.8254L67.0056 24.8303L67.0752 24.8356C67.0764 24.8484 67.071 24.8607 67.0696 24.8741L66.875 25.1093L66.8757 25.1221L66.8895 25.127L66.9824 25.1112C66.9818 25.136 66.9893 25.1587 66.9818 25.1845L66.9466 25.2372L66.948 25.242L66.9533 25.2408L66.9703 25.215C66.9571 25.2524 66.9433 25.2902 66.9295 25.3257C66.9158 25.3605 66.927 25.399 66.9193 25.4353L66.883 25.4908L66.8847 25.4958L66.89 25.4945L66.9167 25.4531L66.9175 25.4547C66.9087 25.5012 66.903 25.5474 66.9044 25.5947L66.8777 25.65L66.8819 25.6648L66.8972 25.6636L66.8979 25.6627C66.902 25.699 66.9125 25.7297 66.9221 25.7649L66.9158 25.7755L66.9175 25.7805L66.9228 25.7791L66.926 25.7735C66.9498 25.8561 66.9847 25.9348 67.0367 26.0051L67.054 26.133L67.06 26.1379L67.0649 26.133L67.0511 26.0351C67.0556 26.041 67.0556 26.049 67.0604 26.0548C67.0863 26.0624 67.1071 26.0799 67.1318 26.0901L67.1207 26.1258L67.1261 26.1381L67.1408 26.1367L67.1741 26.1111C67.1796 26.1138 67.1851 26.1163 67.1902 26.1191L67.1796 26.277L67.1848 26.2821L67.1906 26.277L67.2007 26.1243C67.227 26.1385 67.2562 26.147 67.2806 26.1639L67.2335 26.2139L67.2338 26.2195H67.2395L67.2882 26.1678C67.2882 26.1678 67.2905 26.1687 67.2915 26.1693L67.3156 26.2551L67.3281 26.2623L67.3374 26.2524L67.3351 26.2134C67.3469 26.2237 67.3556 26.2362 67.3669 26.2471L67.3324 26.3653L67.3358 26.3701L67.3409 26.3675L67.3736 26.2542C67.392 26.2731 67.4114 26.2908 67.4275 26.3113L67.4425 26.348L67.4508 26.3521L67.4556 26.3446L67.455 26.3403C67.4592 26.3464 67.4666 26.3503 67.4703 26.3567C67.5051 26.3323 67.5134 26.2901 67.5184 26.2502L67.5464 26.4061L67.5524 26.4094L67.5567 26.4035L67.5342 26.2819L67.5399 26.277L67.5415 26.2298C67.5499 26.2423 67.5627 26.2529 67.5714 26.2654L67.6188 26.3871L67.6248 26.4265L67.633 26.4312L67.639 26.4248L67.6383 26.4174L67.6489 26.4191L67.6515 26.4098L67.6454 26.4003L67.6801 26.4407L67.6981 26.4573L67.7237 26.5156L67.731 26.519L67.7342 26.5129L67.7182 26.4765L67.7194 26.4778L67.7307 26.4775V26.4675L67.6999 26.4358L67.6941 26.4222L67.6927 26.4112C67.7134 26.4348 67.731 26.4595 67.7525 26.4826L67.776 26.551L67.7858 26.5576L67.7948 26.551L67.7973 26.5364C67.8166 26.5558 67.8357 26.5733 67.8558 26.5922L67.8378 26.7291L67.8432 26.7346L67.85 26.7291L67.8659 26.6005C67.8952 26.6282 67.9275 26.651 67.9579 26.6771L67.9636 26.7317L67.9705 26.7373L67.9763 26.7317L67.9711 26.6881C67.9901 26.7039 68.0083 26.7196 68.0275 26.7348L68.0404 26.7842L68.0477 26.7888L68.0537 26.7825L68.0542 26.7569C68.0686 26.7681 68.0813 26.7808 68.0958 26.7916L68.1413 26.8829L68.1384 26.8987L68.1263 26.9351L68.1266 26.9739L68.1346 26.9858L68.1173 27.0284L68.1198 27.0334L68.1253 27.0315L68.1413 26.9957L68.2022 27.0842L68.2449 27.104C68.4084 27.2587 68.5116 27.5206 68.6045 27.716C68.6132 27.7342 68.6007 27.7536 68.594 27.7727L68.5434 27.8503L68.5697 27.8899C68.5704 27.8943 68.5649 27.8987 68.5667 27.903C68.5685 27.9073 68.577 27.9044 68.5795 27.9081L68.6085 27.9723L68.62 27.9694L68.6193 27.9671C68.6238 27.9763 68.6359 27.9835 68.6357 27.9941C68.8015 27.9849 68.9668 27.9761 69.1321 27.9671H69.2956H69.2963H69.9125C69.9823 27.9715 70.0516 27.9733 70.1215 27.9776L70.119 27.9818L70.1271 27.9861L70.1496 27.9791C70.3166 27.9889 70.4821 27.9779 70.6472 27.9671H70.6827L70.6783 27.9744L70.6866 27.9791L70.744 27.9671H70.768L70.7701 27.9626C70.7712 27.9624 70.7725 27.9625 70.7738 27.9624L70.7487 27.9906L70.7485 27.9983L70.7565 28L70.8549 27.9592C70.8584 27.9588 70.8619 27.9594 70.8656 27.9589C70.8729 27.9576 70.8748 27.9502 70.8824 27.9481L70.912 27.9358L70.9165 27.9533L70.928 27.9602L70.9373 27.9506L70.9329 27.9273L70.9697 27.9121L70.9714 27.9072L70.9652 27.9052L70.9352 27.917L70.9329 27.9159H70.9325C70.9325 27.9159 70.9352 27.9154 70.9352 27.9142C70.9373 27.8986 70.928 27.8836 70.918 27.871C70.9127 27.864 70.9018 27.8632 70.8959 27.8566L70.8768 27.8229L70.7878 27.7589L70.7854 27.7585L70.7182 27.7383L70.7129 27.7379C70.6941 27.7321 70.6754 27.7373 70.6558 27.7341L70.6482 27.7336L70.6456 27.7294L70.6402 27.7288L70.6225 27.7347C70.5639 27.7294 70.5046 27.7197 70.4492 27.7384L70.3907 27.7061L70.3849 27.7076L70.3863 27.7129L70.4357 27.7409C70.4195 27.7467 70.4036 27.7532 70.3866 27.7526C70.3837 27.7523 70.3827 27.7487 70.3803 27.7481L70.3831 27.7429L70.3759 27.7389L70.3689 27.7407C70.3388 27.7303 70.3128 27.7096 70.2888 27.6875C70.2802 27.6795 70.267 27.6766 70.257 27.6697L70.2817 27.6572L70.283 27.652L70.2773 27.6505L70.2484 27.6648C70.2407 27.6597 70.2324 27.6556 70.2241 27.6513L70.2607 27.6357L70.2619 27.631L70.2574 27.6289L70.2154 27.6463C70.1741 27.6254 70.1312 27.6072 70.0835 27.595L70.1202 27.5765L70.1215 27.5713L70.1157 27.5696L70.0712 27.5915C70.0362 27.5827 70.0034 27.5713 69.9695 27.5622L69.97 27.5612L69.9642 27.5597L69.9631 27.5602C69.9503 27.5567 69.9375 27.5524 69.9247 27.5482L69.9275 27.5465L69.9292 27.5396L69.922 27.538L69.9139 27.5431L69.881 27.5177L69.8669 27.4362L69.8641 27.4319L69.8596 27.4344L69.8721 27.5242L69.8874 27.5364C69.8721 27.5303 69.8596 27.5207 69.8458 27.513V27.5112L69.7893 27.4593L69.7744 27.4335C69.7949 27.406 69.8184 27.3808 69.8394 27.3535L69.8711 27.3305L69.8714 27.3254L69.8662 27.3245L69.8589 27.3296C69.8649 27.3218 69.8714 27.3142 69.8779 27.3064L69.8814 27.3062L69.9872 27.176C69.9888 27.1734 69.9913 27.1711 69.9933 27.1685L70.0452 27.1044C70.0889 27.0592 70.1471 27.031 70.1959 26.9912L70.4392 26.8798L70.4407 26.8751L70.435 26.8734L70.2913 26.9343L70.557 26.7896L70.5594 26.7814L70.5504 26.779L70.2985 26.9145C70.3144 26.9037 70.328 26.8894 70.3449 26.8795L70.5306 26.7837C70.5652 26.7708 70.599 26.756 70.6352 26.7447L70.5719 26.7816L70.5704 26.7881L70.5767 26.7897L70.6773 26.7308C70.727 26.7157 70.7767 26.7014 70.8261 26.6866L70.7081 26.7626L70.7069 26.7684L70.7126 26.7698L70.8531 26.6786C70.9249 26.6569 70.9928 26.63 71.0589 26.6015L70.8838 26.7633V26.769H70.8899L71.0797 26.5931C71.0934 26.5868 71.1095 26.5828 71.123 26.5759L71.1182 26.5816L71.1187 26.5887L71.1255 26.5884L71.1508 26.5582C71.1993 26.5308 71.2416 26.4958 71.2817 26.4579L71.2198 26.5313L71.2207 26.5368L71.2268 26.5365L71.313 26.4337C71.3156 26.4309 71.3195 26.4298 71.322 26.4269C71.3826 26.3575 71.4259 26.2714 71.5073 26.2234C71.5073 26.2234 71.5083 26.2232 71.5088 26.2229L71.5118 26.2276L71.5188 26.2243L71.5207 26.2186C71.5561 26.2003 71.5947 26.1887 71.634 26.1769L71.5488 26.3112L71.5503 26.317L71.5566 26.3156L71.6463 26.1723C71.665 26.1665 71.6826 26.1598 71.7006 26.1524C71.7529 26.1304 71.772 26.0771 71.8087 26.0394L71.7467 26.1862L71.7494 26.191L71.7554 26.1884L71.8249 26.0223C71.8551 25.9875 71.899 25.9657 71.9195 25.9232L71.8483 26.1151L71.8519 26.1204L71.8583 26.1174L71.9567 25.8461L71.9542 25.8417L71.949 25.844C71.9728 25.7757 71.9898 25.7055 72.001 25.6345L72.0135 25.6934L71.9865 25.9155L71.991 25.9197L71.9962 25.9155L72.0193 25.7194L72.0378 25.8072L72.0429 25.8102L72.0468 25.8049L72.0234 25.683L72.0321 25.6073L72.0284 25.6037L72.0236 25.6073L72.0211 25.6292L72.0116 25.5914C72.0128 25.5832 72.0166 25.575 72.0176 25.5668C72.0236 25.5168 72.0276 25.466 72.0326 25.4156L72.0616 25.6969L72.0667 25.7014L72.0712 25.6969L72.0369 25.3726C72.0426 25.3127 72.048 25.253 72.0513 25.1929L72.0834 25.2624L72.0892 25.2641L72.0915 25.2591L72.0516 25.1729C72.0558 25.0939 72.0578 25.0147 72.0556 24.936L72.116 25.0827L72.122 25.0853L72.125 25.0802L72.0558 24.9145C72.0549 24.8906 72.0509 24.8673 72.0494 24.8436L72.0967 24.9389L72.1032 24.9406L72.1052 24.9341L72.0463 24.8161C72.0418 24.7609 72.0353 24.7062 72.0263 24.6519L72.0769 24.7927L72.0827 24.7956L72.0858 24.7904L72.0269 24.6274L72.0234 24.6259C72.0073 24.5349 71.9803 24.4464 71.949 24.3591L71.984 24.4165L71.9902 24.4181L71.9917 24.4125L71.9619 24.3635L72.002 24.4165L72.0078 24.4177L72.009 24.4126L71.9349 24.315C71.9272 24.2954 71.9245 24.2747 71.9161 24.2553C71.9161 24.2553 71.9157 24.2547 71.9157 24.2543L71.8966 24.1629L72.0222 24.3169L72.0283 24.318L72.0295 24.313L71.8961 24.1509L71.9497 24.1895L71.9557 24.189V24.1839L71.8914 24.1379L71.8911 24.1361L71.889 24.134L71.8866 24.1345L71.8773 24.1277L71.8699 24.1186L71.8668 24.1173L71.8663 24.1175C71.8625 24.1049 71.8551 24.0932 71.853 24.0802L71.9855 24.1578L71.9917 24.1563L71.9902 24.1505L71.8489 24.07C71.8489 24.0695 71.8488 24.0692 71.8488 24.0692C71.8481 24.0618 71.8523 24.0553 71.8519 24.0483L71.9167 24.0586L71.9217 24.0555L71.9189 24.051L71.8533 24.0411C71.853 24.028 71.8576 24.0151 71.8593 24.0021L71.9504 24.0314L71.955 24.0288L71.9526 24.0239L71.8603 23.995C71.8679 23.9347 71.8752 23.8739 71.8952 23.8141L71.8968 23.8124L71.8977 23.8037C71.9115 23.7615 71.9275 23.7195 71.9317 23.6762C71.9359 23.6304 71.9237 23.5859 71.9148 23.5411L71.9161 23.5313L71.9202 23.5334L71.9234 23.5286L71.9182 23.5104L71.923 23.4658L71.9202 23.4628L71.9167 23.4658L71.9134 23.4936L71.9034 23.4593C71.8999 23.4463 71.8971 23.4333 71.8936 23.4205L71.9009 23.4344L71.9064 23.4357L71.9084 23.4304L71.8846 23.3862C71.8746 23.3521 71.8648 23.3181 71.8576 23.2837L71.8599 23.2826L71.8603 23.28L71.8519 23.2519C71.834 23.1398 71.841 23.0226 71.8488 22.906L71.8663 22.8732L71.8648 22.8683L71.8596 22.8696L71.85 22.8868C71.85 22.8817 71.8503 22.8769 71.8506 22.8717L71.8683 22.8403L71.8648 22.8289L71.8867 22.7849L71.8852 22.7799L71.8801 22.7813L71.8554 22.8301L71.8533 22.8306C71.8534 22.8215 71.8541 22.8122 71.8545 22.8031L71.9161 22.6901L71.9148 22.6853L71.9096 22.6866L71.8538 22.7877C71.8545 22.7725 71.8512 22.7585 71.8512 22.7435L71.8987 22.6658L71.8974 22.6612L71.8923 22.6623L71.8506 22.7292C71.8506 22.7236 71.8496 22.7181 71.8496 22.7125L71.8701 22.6556L71.8781 22.6392L71.8551 22.5506L71.8443 22.545L71.8336 22.5506L71.8313 22.5548C71.8298 22.5479 71.8247 22.5419 71.8228 22.535L71.8275 22.4781L71.8236 22.4743L71.8191 22.4781L71.8154 22.5181C71.8053 22.4869 71.7931 22.4566 71.7762 22.4276L71.7536 22.3496L71.7339 22.307L71.6936 22.2642L71.6877 22.2378L71.684 22.2357L71.6813 22.2396L71.6846 22.2547L71.5974 22.1629L71.5825 22.1624L71.5798 22.1754L71.6265 22.2408L71.6237 22.2405L71.6009 22.2058L71.5961 22.2048L71.5947 22.209L71.6147 22.24L71.5749 22.2367C71.4896 22.1895 71.3967 22.1516 71.3036 22.1193C71.0001 22.0143 70.6804 21.9309 70.3613 21.9369L70.3844 21.929L70.3984 21.9291L70.469 21.9161L70.7078 21.9035L70.7107 21.9009L70.7078 21.8976L70.5175 21.9074L70.5927 21.8936L70.5997 21.8815L70.5872 21.875L70.3667 21.9093L70.1438 21.8979L70.1318 21.904L70.1358 21.915L70.1651 21.9283C70.1654 21.9299 70.1611 21.9296 70.1625 21.9313C70.1651 21.931 70.1676 21.9312 70.1705 21.931L70.1978 21.9434C70.1878 21.9621 70.1734 21.9803 70.1516 21.9897C70.1336 21.9974 70.1187 22.0096 70.101 22.0176L70.0206 22.0434L70.0173 22.0491L70.0234 22.0522L70.0352 22.0485L69.6808 22.1968L69.6791 22.2019L69.6853 22.2038L69.9778 22.085C69.8763 22.1375 69.7727 22.1875 69.6794 22.2519V22.2465L69.6624 22.2461L69.586 22.3135L69.4623 22.3882L69.4611 22.3929L69.4663 22.3943L69.5574 22.3388L69.4602 22.4245L69.4675 22.4159L69.4668 22.4097L69.4611 22.4101L69.4109 22.4681L69.2498 22.6099L69.2482 22.6231L69.2614 22.6283L69.3486 22.5961L69.43 22.5544L69.397 22.5885V22.5839L69.3906 22.5835L69.2034 22.7357L69.2031 22.741L69.2091 22.7412L69.3932 22.5925L69.2245 22.766L69.2239 22.7808L69.2392 22.7835L69.286 22.7565L69.2605 22.7868L69.1924 22.8327L69.1913 22.8384L69.1966 22.8397L69.2415 22.8093L69.1982 22.8607L69.1993 22.8762L69.2146 22.876L69.2896 22.8037L69.2382 22.9129L69.2226 22.9774L69.2169 22.9758L69.1232 23.0191L69.1216 23.0242L69.1273 23.0259L69.2212 22.9827L69.2217 22.9813L69.2094 23.0311L69.2135 23.0355L69.2194 23.0323L69.27 22.8753L69.3608 22.7349L69.3598 22.7208L69.3456 22.721V22.7064L69.3309 22.7039L69.3005 22.7216L69.4667 22.5506C69.3701 22.7061 69.3008 22.8731 69.2502 23.0463L69.1608 23.1762L69.1626 23.1891L69.1768 23.1909L69.1791 23.1896L69.1068 23.2508L69.1043 23.2598L69.111 23.2663L69.1393 23.2723L69.1358 23.3173L69.1539 23.3599L69.0329 23.3638L68.9749 23.3503L68.9693 23.3534L68.9726 23.3585L69.0002 23.3647L68.9869 23.3653L68.9766 23.3728L68.9816 23.3841L69.0101 23.4043C69.0066 23.4053 69.0029 23.4065 68.9995 23.4074L68.9232 23.3792L68.9174 23.3819L68.9197 23.3876L68.9865 23.4115C68.9688 23.4167 68.9513 23.423 68.9338 23.4277L68.8252 23.408L68.819 23.4117L68.8223 23.417L68.9044 23.4311L68.903 23.4322L68.9059 23.4364C68.8951 23.439 68.8847 23.4434 68.8739 23.446L68.7354 23.4346L68.724 23.4405V23.4526L68.7402 23.4775L68.7389 23.4777L68.6582 23.4634L68.6446 23.4679L68.6433 23.481L68.6513 23.4945C68.6305 23.4984 68.61 23.5027 68.5892 23.5065L68.485 23.4736L68.4703 23.4811L68.4783 23.4958L68.5408 23.5158C68.5141 23.5206 68.4876 23.5262 68.4613 23.531C68.4555 23.5459 68.4493 23.5604 68.4436 23.5753L68.4233 23.5794L68.375 23.574L68.3695 23.5782L68.3736 23.5841L68.3849 23.5873L68.384 23.5876L68.3757 23.5971L68.382 23.6075L68.1663 23.6563L68.1538 23.6491L68.1478 23.6507L68.1493 23.6564L68.1538 23.659L68.0671 23.6786L68.0708 23.676L68.074 23.66L68.0585 23.6569L67.9051 23.7306L67.891 23.7143L67.8857 23.7141L67.8855 23.7193L67.898 23.7339L67.8448 23.7595L67.607 23.7958L67.5955 23.8032L67.598 23.8154L67.6489 23.8552C67.6448 23.8568 67.6403 23.8577 67.6365 23.8592L67.2877 23.8458Z" fill="#292929"/>
</svg>
